<svg width="12" height="14" viewBox="0 0 12 14" fill="none" xmlns="http://www.w3.org/2000/svg">
<path d="M8.40074 0H8.50033C8.58025 0.987309 8.2034 1.72503 7.7454 2.25925C7.29601 2.78979 6.68063 3.30435 5.68533 3.22628C5.61893 2.25311 5.9964 1.5701 6.45378 1.03711C6.87797 0.540377 7.65564 0.0983621 8.40074 0ZM11.4137 10.2764V10.304C11.134 11.1512 10.735 11.8772 10.2481 12.551C9.80363 13.1627 9.25895 13.9859 8.28639 13.9859C7.44601 13.9859 6.88781 13.4455 6.02652 13.4307C5.11544 13.416 4.61441 13.8826 3.78141 14H3.49739C2.8857 13.9115 2.39204 13.427 2.03241 12.9906C0.97194 11.7008 0.152461 10.0348 0 7.90278V7.27634C0.0645501 5.75049 0.805954 4.5099 1.79142 3.90866C2.31151 3.58899 3.02648 3.31665 3.8226 3.43837C4.16379 3.49124 4.51236 3.60804 4.8179 3.72362C5.10745 3.83489 5.46955 4.03223 5.81258 4.02178C6.04497 4.01502 6.27612 3.89391 6.51034 3.80846C7.19642 3.56071 7.86897 3.27669 8.75546 3.41009C9.82084 3.57116 10.577 4.04453 11.0442 4.77487C10.143 5.34844 9.43047 6.2128 9.55219 7.68884C9.66039 9.02964 10.4399 9.81408 11.4137 10.2764Z" fill="#B8BCC1"/>
</svg>
