<svg width="20" height="21" viewBox="0 0 20 21" fill="none" xmlns="http://www.w3.org/2000/svg">
<path fill-rule="evenodd" clip-rule="evenodd" d="M0 4.50327C0 2.11532 0 0.0855755 2.99402 0.0855755L16.8862 0.0855755C17.9242 0.00597741 20 0.491526 20 3.07051V8.91303C20 10.704 19.9042 10.8074 18.5629 12.1447C17.2216 13.4819 13.7725 16.841 12.2156 18.3533C10.7785 19.7494 10.4192 19.9572 8.38324 20.0249C5.50898 20.1204 3.59282 20.0647 2.99402 20.0249C1.99601 19.9453 0 19.2608 0 17.1594V4.50327ZM15.7602 8.2196C15.8578 8.30097 15.9303 8.41053 15.9687 8.53462C16.0074 8.65869 16.0103 8.7919 15.977 8.91768C15.9438 9.04346 15.8758 9.15627 15.7817 9.2421L13.1636 11.6375L13.9356 15.186C13.9634 15.3133 13.9547 15.4463 13.9106 15.5685C13.8665 15.6906 13.7889 15.7966 13.6876 15.8731C13.4806 16.0297 13.2051 16.0422 12.9866 15.905L10 14.0418L7.01244 15.905C6.91143 15.9681 6.79892 16 6.68548 16C6.55393 16 6.42344 15.9572 6.31195 15.8731C6.10448 15.7166 6.00744 15.4469 6.06393 15.186L6.83593 11.6375L4.2179 9.24161C4.02535 9.0663 3.95239 8.78819 4.0314 8.53462C4.06987 8.41069 4.14235 8.30128 4.23985 8.21994C4.33735 8.13859 4.45559 8.0889 4.5799 8.07702L8.04398 7.74885L9.41356 4.40438C9.51453 4.15866 9.74453 4 10 4C10.2556 4 10.4855 4.15863 10.5866 4.40377L11.9561 7.74882L15.4197 8.07702C15.5441 8.08864 15.6625 8.13823 15.7602 8.2196Z" fill="#D73023"/>
</svg>
