<svg width="21" height="21" viewBox="0 0 21 21" fill="none" xmlns="http://www.w3.org/2000/svg">
<g id="Frame" clip-path="url(#clip0_3549_294)">
<g id="Group">
<path id="Vector" d="M11.3126 2.21249C11.5384 1.91326 11.5021 1.27859 11.4699 0.718719C11.4687 0.694586 11.4674 0.670985 11.466 0.647015C11.1496 0.616799 10.8292 0.600098 10.505 0.600098C9.26264 0.600098 8.0739 0.828969 6.97674 1.24388C7.7594 1.62 8.97089 2.26737 10.3175 3.2239C10.777 2.8285 11.1235 2.46349 11.3126 2.21249ZM16.3696 7.90746C15.8776 7.96303 15.4628 8.04376 15.108 8.15699C16.8041 11.1183 17.4654 14.8596 17.6272 17.57C19.3075 15.8579 20.3746 13.5435 20.4755 10.9798C19.3177 9.55664 17.7839 7.74702 16.3696 7.90746ZM6.28649 5.35132C7.47822 5.10334 8.59783 4.50354 9.49053 3.87041C7.6282 2.58775 6.07489 1.92208 5.7659 1.79538C3.83378 2.83986 2.28766 4.50403 1.38818 6.52043C2.55733 6.0546 3.82354 5.8176 5.0672 5.58669C5.46953 5.51196 5.88542 5.43474 6.28649 5.35132Z" fill="white"/>
<path id="Vector_2" d="M13.1847 5.64156C13.2919 5.74917 13.3978 5.85798 13.5025 5.96799C13.8913 6.37612 14.244 6.82251 14.5675 7.29479C15.0386 7.11692 15.5932 6.99078 16.2571 6.91573C17.8213 6.7388 19.2122 7.97789 20.4059 9.34206C20.15 7.27405 19.2631 5.40236 17.9415 3.92627C17.2201 4.0132 16.4159 4.16049 15.5962 4.40508C15.0585 4.56568 14.2022 5.00203 13.1847 5.64156ZM11.8715 10.7958C12.2809 9.40927 12.755 8.40979 13.6737 7.76103C13.398 7.36523 13.1013 6.99376 12.7799 6.65632C12.6312 6.50017 12.4809 6.34937 12.3299 6.20123C8.6441 8.71 3.59532 13.3185 3.13623 17.3115C4.66871 18.9882 6.766 20.138 9.127 20.4643C9.98667 18.7527 10.7958 15.2733 11.2767 13.204C11.5078 12.2101 11.7072 11.3519 11.8715 10.7958Z" fill="white"/>
<path id="Vector_3" d="M7.69253 8.59714C8.97764 7.41293 10.3348 6.35101 11.5761 5.49755C11.1768 5.14462 10.7644 4.80672 10.3399 4.48455C9.30885 5.25957 7.95897 6.02292 6.48962 6.32851C6.07814 6.41414 5.65678 6.49242 5.24942 6.56804C3.67986 6.85951 2.17319 7.1418 0.906126 7.84875C0.659369 8.71732 0.524414 9.63305 0.524414 10.5807C0.524414 12.7007 1.18747 14.6649 2.31451 16.2812C3.04466 13.3903 5.54906 10.5723 7.69253 8.59714ZM12.4358 4.92752C13.6232 4.17055 14.6468 3.64714 15.311 3.44889C15.9074 3.27078 16.4924 3.14105 17.0465 3.04644C15.7662 1.93393 14.2013 1.14103 12.4737 0.79541C12.512 1.49244 12.5287 2.2577 12.1094 2.81369C11.9101 3.07772 11.5731 3.43983 11.1346 3.83269C11.5821 4.18087 12.0162 4.54608 12.4358 4.92752ZM12.8287 11.0784C12.6728 11.6063 12.4763 12.4515 12.2489 13.43C11.5774 16.3191 10.9349 18.9044 10.1845 20.553C10.2911 20.5564 10.3975 20.5612 10.5049 20.5612C12.8309 20.5612 14.9691 19.7633 16.6661 18.4294C16.5991 15.5931 15.9191 11.5812 14.2063 8.6031C13.5421 9.09682 13.1845 9.87352 12.8287 11.0784Z" fill="white"/>
</g>
</g>
<defs>
<clipPath id="clip0_3549_294">
<rect width="20" height="20" fill="white" transform="translate(0.5 0.577637)"/>
</clipPath>
</defs>
</svg>
