<svg width="27" height="21" viewBox="0 0 27 21" fill="none" xmlns="http://www.w3.org/2000/svg">
<g id="Frame" clip-path="url(#clip0_3550_388)">
<g id="Group">
<path id="Vector" d="M2.55153 17.8114C5.58968 17.7679 5.00147 14.5097 3.55038 12.8028C2.39893 11.3832 2.46829 10.4491 2.47754 10.3474L2.59315 8.70527C2.61357 8.41338 2.52731 8.12401 2.35039 7.89095C2.17347 7.65789 1.91793 7.49701 1.6313 7.43822L1.05327 7.40585C0.34058 10.4222 0.386655 13.5682 1.18737 16.5624C1.34922 17.1117 1.33535 17.1326 1.55269 17.7971C1.88477 17.8276 2.21873 17.8327 2.55153 17.8114ZM25.9337 7.35498L25.3742 7.43359C25.0851 7.49079 24.8269 7.65158 24.6481 7.88576C24.4693 8.11994 24.3822 8.41137 24.4031 8.70527L24.5187 10.3654C24.5279 10.4486 24.5973 11.3827 23.4459 12.7978C22.6772 13.6979 22.2542 14.8423 22.2528 16.026C22.2958 17.6625 24.1062 17.9543 25.4389 17.8063C26.5862 14.4389 26.7577 10.8157 25.9337 7.35498Z" fill="white"/>
<path id="Vector_2" d="M23.9684 18.6994C20.4673 18.2929 20.9085 14.304 22.7337 12.2152C23.6262 11.1146 23.5984 10.4441 23.5984 10.4395L23.4782 8.77012C23.4627 8.46999 23.5087 8.16985 23.6135 7.88817C23.7183 7.60649 23.8796 7.34923 24.0875 7.13221C24.2954 6.9152 24.5455 6.74303 24.8225 6.62628C25.0994 6.50953 25.3973 6.45069 25.6978 6.45336C25.2153 4.8415 24.574 3.28149 23.7834 1.79625C23.5992 1.45909 23.3345 1.17274 23.0129 0.962718C22.6912 0.752697 22.3225 0.625537 21.9398 0.592572C21.557 0.559608 21.1721 0.621865 20.8192 0.773792C20.4664 0.925719 20.1566 1.1626 19.9175 1.4633C19.2432 2.3168 18.3518 2.97325 17.3367 3.36388C17.1127 4.16924 16.8861 4.97386 16.6569 5.77775C16.549 6.07102 16.3537 6.32408 16.0973 6.50272C15.8409 6.68136 15.5359 6.77696 15.2234 6.7766H11.7732C11.4625 6.77731 11.159 6.68286 10.9035 6.50594C10.6481 6.32903 10.4529 6.07813 10.3443 5.787C10.1686 5.19186 9.78802 3.92249 9.61369 3.33151C8.61929 2.96325 7.74775 2.32414 7.09762 1.48642C6.86064 1.181 6.55138 0.93934 6.19771 0.783238C5.84405 0.627136 5.4571 0.561495 5.07174 0.592232C4.68638 0.622969 4.31473 0.749117 3.99028 0.959307C3.66584 1.1695 3.39879 1.45712 3.21322 1.79625C2.41688 3.2927 1.77228 4.86508 1.28906 6.48989C1.58948 6.47734 1.88918 6.52812 2.1687 6.63894C2.44821 6.74975 2.70129 6.91813 2.91149 7.13313C3.1217 7.34813 3.28432 7.60494 3.38881 7.88689C3.49329 8.16883 3.53729 8.4696 3.51796 8.76966L3.40236 10.4302C3.39773 10.4441 3.36999 11.1146 4.2671 12.2152C5.17079 13.2794 5.66732 14.6299 5.66825 16.0261C5.63681 18.0025 3.76536 18.876 1.97808 18.7452C2.4234 19.6501 3.35056 20.5704 4.43357 20.5163C5.71958 20.5357 6.6375 19.4573 6.98617 18.2504L8.08259 14.3706C9.10455 14.8515 10.7323 15.1567 11.9994 13.959C12.2193 13.7601 12.5076 13.6541 12.804 13.6631H14.1917C14.4881 13.6541 14.7764 13.7601 14.9963 13.959C16.2588 15.1567 17.8911 14.8515 18.9136 14.3706L20.0141 18.2596C20.4867 20.1685 22.5945 21.32 24.1811 19.8735C24.5171 19.545 24.7995 19.1658 25.0181 18.7498C24.6674 18.7608 24.3164 18.7443 23.9684 18.6994ZM7.40282 8.31694C7.40282 8.43959 7.3541 8.55721 7.26738 8.64393C7.18066 8.73065 7.06303 8.77937 6.94039 8.77937C6.81775 8.77937 6.70013 8.73065 6.61341 8.64393C6.52668 8.55721 6.47796 8.43959 6.47796 8.31694V7.5077H5.66872C5.54607 7.5077 5.42845 7.45898 5.34173 7.37225C5.25501 7.28553 5.20629 7.16791 5.20629 7.04527C5.20629 6.92262 5.25501 6.805 5.34173 6.71828C5.42845 6.63156 5.54607 6.58284 5.66872 6.58284H6.47796V5.77359C6.47796 5.65095 6.52668 5.53333 6.61341 5.44661C6.70013 5.35988 6.81775 5.31116 6.94039 5.31116C7.06303 5.31116 7.18066 5.35988 7.26738 5.44661C7.3541 5.53333 7.40282 5.65095 7.40282 5.77359V6.58284H8.21669C8.33933 6.58284 8.45696 6.63156 8.54368 6.71828C8.6304 6.805 8.67912 6.92262 8.67912 7.04527C8.67912 7.16791 8.6304 7.28553 8.54368 7.37225C8.45696 7.45898 8.33933 7.5077 8.21669 7.5077H7.40282V8.31694ZM9.67796 13.2834C9.15305 13.2834 8.64963 13.0749 8.27846 12.7037C7.90729 12.3326 7.69877 11.8291 7.69877 11.3042C7.69877 10.7793 7.90729 10.2759 8.27846 9.90473C8.64963 9.53356 9.15305 9.32504 9.67796 9.32504C10.2029 9.32504 10.7063 9.53356 11.0775 9.90473C11.4486 10.2759 11.6572 10.7793 11.6572 11.3042C11.6572 11.8291 11.4486 12.3326 11.0775 12.7037C10.7063 13.0749 10.2029 13.2834 9.67796 13.2834ZM17.3413 13.2834C16.8164 13.2834 16.313 13.0749 15.9418 12.7037C15.5706 12.3326 15.3621 11.8291 15.3621 11.3042C15.3621 10.7793 15.5706 10.2759 15.9418 9.90473C16.313 9.53356 16.8164 9.32504 17.3413 9.32504C17.8662 9.32504 18.3696 9.53356 18.7408 9.90473C19.112 10.2759 19.3205 10.7793 19.3205 11.3042C19.3205 11.8291 19.112 12.3326 18.7408 12.7037C18.3696 13.0749 17.8662 13.2834 17.3413 13.2834ZM19.6766 7.56319C19.5392 7.69993 19.3532 7.77651 19.1593 7.77608C18.9655 7.77565 18.7798 7.69824 18.643 7.56087C18.5063 7.42351 18.4297 7.23746 18.4302 7.04363C18.4306 6.84981 18.508 6.6641 18.6454 6.52735C18.7134 6.45964 18.7941 6.40599 18.8828 6.36946C18.9716 6.33293 19.0666 6.31424 19.1626 6.31445C19.2586 6.31467 19.3536 6.33379 19.4422 6.37071C19.5307 6.40764 19.6112 6.46165 19.6789 6.52966C19.7466 6.59767 19.8002 6.67836 19.8368 6.76711C19.8733 6.85586 19.892 6.95093 19.8918 7.0469C19.8916 7.14287 19.8725 7.23786 19.8355 7.32645C19.7986 7.41503 19.7446 7.49548 19.6766 7.56319ZM21.739 6.52735C21.8764 6.3906 22.0624 6.31402 22.2562 6.31445C22.4501 6.31489 22.6358 6.3923 22.7725 6.52966C22.9093 6.66702 22.9859 6.85308 22.9854 7.0469C22.985 7.24073 22.9076 7.42644 22.7702 7.56319C22.7022 7.6309 22.6215 7.68455 22.5328 7.72108C22.444 7.75761 22.3489 7.7763 22.253 7.77608C22.157 7.77587 22.062 7.75675 21.9734 7.71983C21.8848 7.6829 21.8044 7.62889 21.7367 7.56087C21.669 7.49286 21.6153 7.41218 21.5788 7.32343C21.5423 7.23468 21.5236 7.13961 21.5238 7.04363C21.524 6.94766 21.5431 6.85267 21.5801 6.76409C21.617 6.6755 21.671 6.59506 21.739 6.52735ZM20.1899 4.98284C20.3266 4.84548 20.5123 4.76807 20.7062 4.76763C20.9 4.7672 21.086 4.84378 21.2234 4.98053C21.3608 5.11728 21.4382 5.30299 21.4386 5.49681C21.439 5.69064 21.3625 5.87669 21.2257 6.01405C21.089 6.15141 20.9032 6.22883 20.7094 6.22926C20.5156 6.22969 20.3295 6.15311 20.1922 6.01637C20.0548 5.87962 19.9774 5.69391 19.977 5.50008C19.9765 5.30626 20.0531 5.1202 20.1899 4.98284ZM20.1899 9.1077C20.0531 8.97034 19.9765 8.78428 19.977 8.59045C19.9774 8.39663 20.0548 8.21092 20.1922 8.07417C20.3295 7.93742 20.5156 7.86084 20.7094 7.86128C20.9032 7.86171 21.089 7.93912 21.2257 8.07648C21.3625 8.21384 21.439 8.3999 21.4386 8.59372C21.4382 8.78755 21.3608 8.97326 21.2234 9.11001C21.086 9.24676 20.9 9.32334 20.7062 9.3229C20.5123 9.32247 20.3266 9.24506 20.1899 9.1077Z" fill="white"/>
<path id="Vector_3" d="M11.2231 5.49568C11.2708 5.6017 11.3481 5.6917 11.4457 5.75486C11.5433 5.81802 11.6571 5.85166 11.7734 5.85175H15.2231C15.3392 5.8511 15.4528 5.81722 15.5503 5.75413C15.6478 5.69103 15.7252 5.60135 15.7734 5.49568L16.2913 3.66447C15.4992 3.86655 12.9489 3.75233 12.1017 3.78007C11.6218 3.77956 11.1432 3.73154 10.6728 3.63672C10.8115 4.09961 11.0844 5.0351 11.2231 5.49568ZM9.67811 10.2499C9.39849 10.2499 9.13031 10.361 8.93259 10.5587C8.73486 10.7564 8.62378 11.0246 8.62378 11.3042C8.62378 11.5839 8.73486 11.852 8.93259 12.0498C9.13031 12.2475 9.39849 12.3586 9.67811 12.3586C9.95774 12.3586 10.2259 12.2475 10.4236 12.0498C10.6214 11.852 10.7324 11.5839 10.7324 11.3042C10.7324 11.0246 10.6214 10.7564 10.4236 10.5587C10.2259 10.361 9.95774 10.2499 9.67811 10.2499ZM17.3415 10.2499C17.0618 10.2499 16.7937 10.361 16.5959 10.5587C16.3982 10.7564 16.2871 11.0246 16.2871 11.3042C16.2871 11.5839 16.3982 11.852 16.5959 12.0498C16.7937 12.2475 17.0618 12.3586 17.3415 12.3586C17.6211 12.3586 17.8893 12.2475 18.087 12.0498C18.2847 11.852 18.3958 11.5839 18.3958 11.3042C18.3958 11.0246 18.2847 10.7564 18.087 10.5587C17.8893 10.361 17.6211 10.2499 17.3415 10.2499Z" fill="white"/>
</g>
</g>
<defs>
<clipPath id="clip0_3550_388">
<rect width="25.9538" height="20" fill="white" transform="translate(0.523193 0.577637)"/>
</clipPath>
</defs>
</svg>
