<svg width="21" height="21" viewBox="0 0 21 21" fill="none" xmlns="http://www.w3.org/2000/svg">
<g id="Frame" clip-path="url(#clip0_3549_337)">
<g id="Group">
<path id="Vector" d="M14.3892 15.8137C12.518 17.1086 10.305 17.7997 8.03193 17.7997C7.78148 17.7997 7.53045 17.7913 7.27886 17.7744C5.47563 17.6533 3.74906 17.1034 2.23267 16.1863C2.58481 16.7006 2.98382 17.1812 3.42459 17.6219C5.31027 19.5076 7.8174 20.546 10.4842 20.546C12.1506 20.546 13.7548 20.1405 15.1838 19.3761C15.1378 18.1502 14.8685 16.943 14.3892 15.8137ZM12.3113 0.745117C10.0687 1.40174 8.12573 2.82497 6.814 4.78136C5.50952 6.7269 4.93276 9.05288 5.17011 11.3749C6.81435 11.3749 8.45644 10.965 9.91176 10.1847C9.97327 8.3149 10.501 6.48893 11.4475 4.88209C12.2424 3.53277 13.3145 2.36307 14.5829 1.45346C13.857 1.12663 13.0942 0.888795 12.3113 0.745117Z" fill="white"/>
<path id="Vector_2" d="M17.3269 10.2238C16.2944 8.12156 14.5687 6.45922 12.4395 5.50371C11.6002 6.93911 11.1332 8.5686 11.0806 10.2372C12.6692 11.2254 13.9866 12.5954 14.9049 14.2185C15.6801 15.5888 16.1579 17.1109 16.3088 18.6728C16.7479 18.3561 17.1608 18.0047 17.5437 17.6219C17.7219 17.4437 17.8934 17.2589 18.0579 17.068C18.6316 14.7782 18.3752 12.3582 17.3269 10.2238ZM3.98859 11.3028C3.77347 8.77327 4.42097 6.24945 5.84217 4.12981C6.82503 2.66392 8.12584 1.46634 9.63206 0.61499C7.28673 0.811935 5.10794 1.81944 3.42455 3.50279C1.62002 5.30731 0.592049 7.68102 0.506836 10.219C1.59194 10.7888 2.7718 11.1561 3.98859 11.3028Z" fill="white"/>
<path id="Vector_3" d="M10.4508 11.2235C8.82924 12.0899 7.01902 12.5451 5.18716 12.5451V12.5447C3.32945 12.5447 1.97123 12.1864 0.547607 11.541C0.621248 12.3052 0.783185 13.0583 1.03018 13.7852C2.73062 15.4468 4.96865 16.4468 7.35722 16.6072C9.68308 16.7634 11.9756 16.1071 13.8629 14.7535C13.0398 13.3149 11.8651 12.1005 10.4508 11.2235ZM13.0967 4.5186C15.3927 5.59735 17.2528 7.41904 18.3771 9.70808C19.1643 11.3108 19.5511 13.058 19.5255 14.8085C20.1425 13.4971 20.4679 12.0548 20.4679 10.5625C20.4679 7.89572 19.4294 5.38859 17.5438 3.50287C17.0023 2.9609 16.4007 2.48255 15.7507 2.07715C14.7265 2.72494 13.8275 3.55197 13.0967 4.5186Z" fill="white"/>
</g>
</g>
<defs>
<clipPath id="clip0_3549_337">
<rect width="20" height="20" fill="white" transform="translate(0.5 0.577637)"/>
</clipPath>
</defs>
</svg>
