<svg width="20" height="21" viewBox="0 0 20 21" fill="none" xmlns="http://www.w3.org/2000/svg">
<g id="Frame" clip-path="url(#clip0_3550_375)">
<g id="Group">
<path id="Vector" d="M14.0953 14.6352C12.8052 14.6352 11.7561 15.6843 11.7561 16.9744C11.7561 18.2645 12.8052 19.3526 14.0953 19.3526C15.3854 19.3526 16.4345 18.2645 16.4345 16.9744C16.4345 15.6843 15.3854 14.6352 14.0953 14.6352ZM19.5222 8.73455C20.7842 5.76153 19.335 2.32843 16.3621 1.06648C13.3891 -0.195468 9.95597 1.19163 8.69406 4.16457C8.36755 4.93369 8.23811 5.73135 8.24782 6.51638L18.0783 10.6892C18.6498 10.1508 19.1957 9.5036 19.5222 8.73455Z" fill="white"/>
<path id="Vector_2" d="M8.41821 7.85938C8.75794 9.2175 9.5648 10.4453 10.7616 11.2672L8.88757 15.6821C8.63521 16.2767 8.91256 16.9634 9.50722 17.2157C10.1019 17.4682 10.7885 17.1907 11.0408 16.5962L12.9149 12.1812C14.3374 12.4712 15.7812 12.1988 16.9942 11.4996L8.41821 7.85938Z" fill="white"/>
<path id="Vector_3" d="M5.90818 20.561C6.55414 20.561 7.07777 20.0373 7.07777 19.3915V14.5173C7.50966 14.4296 7.91477 14.2792 8.30475 14.1008L9.07095 12.2959H1.21095C2.0543 13.4134 3.31578 14.2284 4.73859 14.5173V19.3915C4.73859 20.0373 5.26218 20.561 5.90818 20.561ZM7.84701 3.29398C7.23746 3.07862 6.59145 2.93921 5.90818 2.93921C2.67847 2.93921 0.0212402 5.55745 0.0212402 8.78716C0.0212402 9.62268 0.213755 10.4076 0.529427 11.1263H8.88876C7.10861 9.13917 6.55578 6.24896 7.63403 3.7079C7.69539 3.56334 7.77699 3.43278 7.84701 3.29398Z" fill="white"/>
</g>
</g>
<defs>
<clipPath id="clip0_3550_375">
<rect width="19.961" height="20" fill="white" transform="translate(0.0195312 0.577637)"/>
</clipPath>
</defs>
</svg>
