<svg width="17" height="21" viewBox="0 0 17 21" fill="none" xmlns="http://www.w3.org/2000/svg">
<g id="Frame" clip-path="url(#clip0_3549_307)">
<g id="Group">
<path id="Vector" d="M11.0258 3.59035L12.4203 1.19152C11.6028 0.811794 10.6917 0.600098 9.73106 0.600098C8.77044 0.600098 7.85933 0.811794 7.04178 1.19152L8.43632 3.59035H11.0258ZM4.98096 6.41023H6.13691L7.42502 4.17827L6.03048 1.77904C5.60765 2.07935 5.22278 2.42979 4.88428 2.82271C4.94868 3.08476 4.98114 3.35364 4.98096 3.62349V6.41023ZM13.3252 6.41023H16.0995C15.9268 4.49951 14.9131 2.83168 13.4316 1.77904L12.0371 4.17827L13.3252 6.41023ZM13.3252 7.57982L12.0277 9.83285L13.3708 12.2543C14.8854 11.204 15.9244 9.51667 16.0999 7.57982H13.3252ZM10.494 12.2691C10.7947 12.5402 11.0507 12.8571 11.2527 13.2079C11.634 13.1151 12.002 12.988 12.3529 12.8301L11.0706 10.5186L10.494 12.2691ZM8.43983 4.75994L7.49051 6.40478C8.1458 5.973 8.9819 5.84251 9.73106 6.08548C10.7146 6.39561 11.4454 7.29795 11.5478 8.32213L12.3123 6.99503L11.0223 4.75994H8.43983Z" fill="white"/>
<path id="Vector_2" d="M9.12198 12.6948L10.2635 9.23044C10.5347 8.4566 10.2832 7.45157 9.32978 7.18599C8.53835 6.96592 7.81044 7.45812 7.53212 8.1704L5.6557 13.3922L4.55551 12.9954L5.24829 11.0753L3.81126 9.33258V3.62342C3.81126 2.41952 2.83465 1.44019 1.63426 1.44019H0.900146V11.6854L4.93367 18.0944V20.561H10.582V15.0589C10.582 14.0528 9.9582 13.1943 9.12198 12.6948Z" fill="white"/>
<path id="Vector_3" d="M4.98096 7.57983V8.91239L5.70298 9.78802L6.36146 7.96931L6.1369 7.57983H4.98096Z" fill="white"/>
</g>
</g>
<defs>
<clipPath id="clip0_3549_307">
<rect width="15.2437" height="20" fill="white" transform="translate(0.878174 0.577637)"/>
</clipPath>
</defs>
</svg>
