<svg width="21" height="21" viewBox="0 0 21 21" fill="none" xmlns="http://www.w3.org/2000/svg">
<g id="Frame" clip-path="url(#clip0_3549_320)">
<g id="Group">
<path id="Vector" d="M17.8893 19.2729C17.0919 19.3069 16.3039 19.0904 15.6357 18.6538V19.4338C15.6357 20.0561 16.6447 20.5606 17.8893 20.5606C19.1339 20.5606 20.1428 20.0561 20.1428 19.4338V18.6538C19.4747 19.0904 18.6866 19.3069 17.8893 19.2729Z" fill="white"/>
<path id="Vector_2" d="M17.8893 18.629C19.1338 18.629 20.1428 18.1245 20.1428 17.5022C20.1428 16.88 19.1338 16.3755 17.8893 16.3755C16.6447 16.3755 15.6357 16.88 15.6357 17.5022C15.6357 18.1245 16.6447 18.629 17.8893 18.629Z" fill="white"/>
<path id="Vector_3" d="M18.8551 0.60083L14.2515 9.06763C14.2595 9.06947 14.2671 9.07274 14.274 9.07729L16.0543 10.1461L20.1428 2.53242L20.1686 0.60083H18.8551ZM3.58908 16.0535C3.16935 16.0535 2.76101 16.1901 2.42585 16.4428C2.09069 16.6954 1.84696 17.0504 1.73153 17.4539L1.54481 18.0978C1.45683 18.4016 1.44686 18.7227 1.51584 19.0314C1.6073 19.464 1.84465 19.8519 2.1881 20.1303C2.53155 20.4087 2.96025 20.5606 3.40236 20.5606H4.062L5.34972 16.0535H3.58908ZM11.5504 14.035L11.0354 14.9847C10.875 15.3059 10.6283 15.5761 10.3229 15.7649C10.0175 15.9537 9.6656 16.0537 9.30658 16.0535H7.60324L6.31552 20.5606H9.30658C9.6656 20.5607 10.0175 20.4607 10.3229 20.2719C10.6283 20.0832 10.875 19.813 11.0354 19.4918L13.379 15.1264C13.3742 15.1256 13.3697 15.1233 13.3661 15.1199L11.5504 14.035ZM13.9456 9.63101L11.8595 13.4684C11.8627 13.4717 11.8692 13.4717 11.8724 13.4749L13.6849 14.5598L15.7517 10.7127C15.7452 10.7127 15.742 10.7095 15.7356 10.7063L13.9456 9.63101ZM5.97781 12.1904V11.8684H3.72429V12.1286L4.3453 13.6806C4.36049 13.7186 4.36825 13.7591 4.36815 13.8H6.59785L6.00196 12.3101C5.9864 12.2721 5.97821 12.2315 5.97781 12.1904ZM3.72429 9.29298H5.97781V11.2246H3.72429V9.29298ZM5.97781 7.68333C5.97779 7.64875 5.98333 7.6144 5.99423 7.58159L6.49677 6.07367H4.27833L3.72429 7.73548V8.64912H5.97781V7.68333ZM3.08043 12.1904V11.8684H0.826906V12.1904L1.7927 13.8H3.6995L3.10328 12.3101C3.08817 12.272 3.08041 12.2314 3.08043 12.1904ZM3.08043 7.68333C3.0804 7.64875 3.08595 7.6144 3.09685 7.58159L3.59938 6.07367H1.11246L1.05033 6.27552C0.901597 6.84006 0.8265 7.42146 0.826906 8.00526V8.64912H3.08043V7.68333ZM0.826906 9.29298H3.08043V11.2246H0.826906V9.29298ZM8.8752 11.0276L6.62168 11.7786V12.1286L7.24268 13.6806C7.25787 13.7186 7.26563 13.7591 7.26554 13.8H8.23133L8.8752 12.727V11.0276ZM6.62168 7.73548V8.52453L8.8752 7.77314V6.07367H7.17572L6.62168 7.73548Z" fill="white"/>
<path id="Vector_4" d="M9.89898 1.65364C8.26107 1.05637 6.4556 1.11591 4.86059 1.8198C3.26559 2.52369 2.00474 3.81734 1.34204 5.4299H9.19717C9.28255 5.4299 9.36444 5.46382 9.42481 5.52419C9.48519 5.58456 9.5191 5.66645 9.5191 5.75183V11.7343L13.0604 6.71762V4.00213C12.2724 2.91355 11.1687 2.09366 9.89898 1.65364ZM9.55935 4.14217H9.24739C9.16201 4.14217 9.08013 4.10825 9.01975 4.04788C8.95938 3.98751 8.92546 3.90562 8.92546 3.82024C8.92546 3.73486 8.95938 3.65297 9.01975 3.5926C9.08013 3.53223 9.16201 3.49831 9.24739 3.49831H9.55935C9.64473 3.49831 9.72661 3.53223 9.78699 3.5926C9.84736 3.65297 9.88128 3.73486 9.88128 3.82024C9.88128 3.90562 9.84736 3.98751 9.78699 4.04788C9.72661 4.10825 9.64473 4.14217 9.55935 4.14217ZM10.1729 3.82024C10.1729 3.73486 10.2069 3.65297 10.2672 3.5926C10.3276 3.53223 10.4095 3.49831 10.4949 3.49831H10.8068C10.8922 3.49831 10.9741 3.53223 11.0345 3.5926C11.0948 3.65297 11.1288 3.73486 11.1288 3.82024C11.1288 3.90562 11.0948 3.98751 11.0345 4.04788C10.9741 4.10825 10.8922 4.14217 10.8068 4.14217H10.4949C10.4095 4.14217 10.3276 4.10825 10.2672 4.04788C10.2069 3.98751 10.1729 3.90562 10.1729 3.82024Z" fill="white"/>
<path id="Vector_5" d="M6.62158 11.1L8.8751 10.3486V8.45215L6.62158 9.20321V11.1Z" fill="white"/>
</g>
</g>
<defs>
<clipPath id="clip0_3549_320">
<rect width="19.3561" height="20" fill="white" transform="translate(0.822021 0.577637)"/>
</clipPath>
</defs>
</svg>
