<svg width="21" height="21" viewBox="0 0 21 21" fill="none" xmlns="http://www.w3.org/2000/svg">
<g id="Frame" clip-path="url(#clip0_3550_366)">
<g id="Group">
<path id="Vector" d="M0.661755 14.0969C0.566765 14.8 0.51925 15.5086 0.519533 16.218V18.0972C0.519533 19.4558 1.62487 20.5611 2.98347 20.5611H4.86261C5.57203 20.5614 6.28067 20.5139 6.9837 20.4189L0.661755 14.0969ZM6.98386 20.4188L6.98472 20.4187C6.98443 20.4188 6.98415 20.4188 6.98386 20.4188ZM20.083 8.4629L20.0832 8.46255V8.46248L20.083 8.4629ZM12.6177 0.997603C11.742 1.1996 10.8856 1.47733 10.0581 1.82766C6.61146 3.2854 3.44713 6.11928 1.7471 10.1386C1.39677 10.9661 1.11904 11.8226 0.917037 12.6982L8.38242 20.1636C9.25806 19.9616 10.1145 19.6839 10.942 19.3335C14.3886 17.8758 17.5529 15.0419 19.253 11.0226C19.6033 10.1951 19.881 9.33865 20.083 8.46302L12.6177 0.997603ZM14.6718 8.28793C14.9002 8.51628 14.9002 8.88657 14.6718 9.11495C14.6176 9.16934 14.5531 9.21247 14.4822 9.24186C14.4112 9.27126 14.3351 9.28635 14.2583 9.28626C14.1815 9.28636 14.1054 9.27128 14.0345 9.24188C13.9635 9.21248 13.8991 9.16935 13.8448 9.11495L13.3188 8.58891L12.2666 9.64103L12.7927 10.1671C13.0211 10.3955 13.0211 10.7658 12.7927 10.9941C12.6785 11.1083 12.5288 11.1654 12.3792 11.1654C12.2296 11.1654 12.0799 11.1083 11.9657 10.9941L11.4396 10.4681L10.3875 11.5202L10.9136 12.0463C11.1419 12.2746 11.1419 12.6449 10.9136 12.8733C10.7994 12.9875 10.6497 13.0446 10.5001 13.0446C10.3504 13.0446 10.2007 12.9875 10.0866 12.8733L9.56047 12.3472L8.50834 13.3993L9.03439 13.9254C9.26277 14.1537 9.26277 14.524 9.03439 14.7524C8.98015 14.8068 8.9157 14.8499 8.84474 14.8793C8.77378 14.9087 8.69771 14.9238 8.6209 14.9237C8.54409 14.9238 8.46801 14.9087 8.39705 14.8793C8.32609 14.8499 8.26164 14.8068 8.20741 14.7524L7.68133 14.2263L7.15528 14.7524C7.04109 14.8666 6.89142 14.9237 6.74179 14.9237C6.59216 14.9237 6.44246 14.8666 6.3283 14.7524C6.09992 14.5241 6.09992 14.1538 6.3283 13.9254L6.85439 13.3993L6.3283 12.8732C6.09992 12.6449 6.09992 12.2746 6.3283 12.0462C6.55669 11.8178 6.92694 11.8178 7.15532 12.0462L7.68137 12.5723L8.73349 11.5202L8.20741 10.9941C7.97903 10.7657 7.97903 10.3955 8.20741 10.1671C8.43575 9.93873 8.80604 9.93873 9.03442 10.1671L9.56051 10.6932L10.6126 9.64103L10.0865 9.11495C9.85817 8.88661 9.85817 8.51632 10.0865 8.28793C10.3149 8.05959 10.6852 8.05959 10.9136 8.28793L11.4396 8.81402L12.4918 7.76189L11.9657 7.23581C11.7373 7.00747 11.7373 6.63717 11.9657 6.40879C12.1941 6.18041 12.5644 6.18041 12.7927 6.40879L13.3188 6.93487L13.8448 6.40879C14.0732 6.18045 14.4435 6.18045 14.6719 6.40879C14.9002 6.63713 14.9002 7.00743 14.6719 7.23581L14.1458 7.76189L14.6718 8.28793ZM18.0166 0.600098H16.1375C15.4225 0.600098 14.7147 0.647739 14.0164 0.74232L20.3383 7.06427C20.4333 6.36124 20.4808 5.6526 20.4805 4.94318V3.06404C20.4805 1.70544 19.3752 0.600098 18.0166 0.600098ZM12.6183 0.997447C12.6181 0.997482 12.618 0.997521 12.6178 0.997564L12.6184 0.997447H12.6183Z" fill="white"/>
</g>
</g>
<defs>
<clipPath id="clip0_3550_366">
<rect width="20" height="20" fill="white" transform="translate(0.5 0.577637)"/>
</clipPath>
</defs>
</svg>
