<svg width="21" height="21" viewBox="0 0 21 21" fill="none" xmlns="http://www.w3.org/2000/svg">
<g id="Frame" clip-path="url(#clip0_3549_351)">
<g id="Group">
<path id="Vector" d="M2.79883 14.4769C3.37041 17.0647 6.59535 18.2185 8.67856 16.6538C8.11375 15.5206 6.43001 13.0689 2.79883 14.4769Z" fill="white"/>
<path id="Vector_2" d="M10.0117 13.4117C8.82859 13.4117 6.20872 13.0543 5.27937 10.0232C4.50361 10.2811 3.83273 10.7842 3.36788 11.4566C2.90303 12.1291 2.66941 12.9345 2.70226 13.7513C6.62316 12.3145 8.56062 14.9379 9.22556 16.1673C9.56939 15.7982 9.83548 15.3638 10.008 14.8898C10.1805 14.4158 10.2559 13.9119 10.2297 13.4081C10.1656 13.4117 10.0904 13.4117 10.0117 13.4117Z" fill="white"/>
<path id="Vector_3" d="M8.45705 12.4716C8.99615 12.6432 9.56079 12.7206 10.1262 12.7004C9.90741 11.7996 9.36337 11.0115 8.59867 10.4877C7.83398 9.96378 6.9026 9.74109 5.98364 9.8624C6.14622 10.4688 6.45757 11.025 6.88949 11.4806C7.3214 11.9363 7.8602 12.2769 8.45705 12.4716ZM15.4735 14.5626C15.6485 14.3731 15.8096 14.1945 15.956 14.0335L15.2697 13.3475C14.6406 14.0574 13.9711 14.7305 13.2645 15.3633L13.9509 16.0497C14.4817 15.5784 14.9899 15.0822 15.4735 14.5626ZM18.2149 16.2927L16.4635 14.5412C15.8361 15.2528 15.1665 15.926 14.4583 16.5571L16.2062 18.305C16.5223 17.9643 18.1372 16.36 18.2149 16.2927Z" fill="white"/>
<path id="Vector_4" d="M14.2833 13.3653C14.4583 13.1758 14.6193 12.9972 14.7658 12.8362C14.2127 12.2419 13.7317 11.5846 13.3326 10.8777C12.8807 10.0719 12.5404 9.20858 12.3209 8.31125C12.2283 7.87799 12.0123 7.48074 11.6991 7.16738L5.92982 1.39811C5.63994 1.10203 5.28432 0.878472 4.89183 0.7456C4.49935 0.612729 4.08106 0.574286 3.67093 0.633393C2.90022 0.778429 2.19093 1.15184 1.63515 1.70514C1.07937 2.25844 0.702794 2.96606 0.554315 3.73611C0.491891 4.14936 0.528329 4.57152 0.66064 4.96795C0.792952 5.36439 1.01737 5.72381 1.31547 6.01673L4.75423 9.45477C5.42898 9.17529 6.16181 9.0649 6.88896 9.1332C7.61611 9.20151 8.31555 9.44644 8.92646 9.8467C9.53736 10.247 10.0412 10.7904 10.3942 11.4298C10.7472 12.0692 10.9386 12.7851 10.9518 13.5154C11.5999 13.8957 12.2041 14.3464 12.7535 14.8591C13.2791 14.3995 13.8368 13.84 14.2833 13.3653ZM5.47619 3.82555C5.40898 3.89178 5.31842 3.9289 5.22407 3.9289C5.12972 3.9289 5.03916 3.89178 4.97195 3.82555L4.2393 3.08898C4.18936 3.0378 4.12426 3.00406 4.05365 2.99277C3.77309 3.05378 3.51755 3.19825 3.32064 3.4072C3.25316 3.47414 3.16197 3.5117 3.06692 3.5117C2.97187 3.5117 2.88068 3.47414 2.8132 3.4072C2.78008 3.37414 2.7538 3.33487 2.73588 3.29164C2.71795 3.24841 2.70872 3.20206 2.70872 3.15526C2.70872 3.10846 2.71795 3.06212 2.73588 3.01889C2.7538 2.97566 2.78008 2.93639 2.8132 2.90333C3.36126 2.38306 4.13881 1.98395 4.74318 2.58511L5.47619 3.31776C5.51016 3.35074 5.53717 3.39021 5.55562 3.43382C5.57406 3.47743 5.58357 3.5243 5.58357 3.57166C5.58357 3.61901 5.57406 3.66588 5.55562 3.70949C5.53717 3.7531 5.51016 3.79257 5.47619 3.82555ZM20.2414 16.9146C19.8495 16.3978 19.1168 16.4114 18.6079 16.9039L16.8173 18.6909C16.7039 18.7847 16.6114 18.9011 16.5456 19.0327C16.4798 19.1642 16.4422 19.3081 16.4353 19.4551C16.4283 19.602 16.4521 19.7488 16.5052 19.886C16.5583 20.0232 16.6394 20.1478 16.7434 20.2518C16.8475 20.3559 16.9721 20.437 17.1093 20.4901C17.2465 20.5431 17.3933 20.567 17.5402 20.56C17.6872 20.5531 17.831 20.5155 17.9626 20.4497C18.0942 20.3839 18.2106 20.2914 18.3043 20.178L20.095 18.3873C20.3069 18.2096 20.441 17.956 20.4683 17.6808C20.4957 17.4055 20.4143 17.1305 20.2414 16.9146Z" fill="white"/>
</g>
</g>
<defs>
<clipPath id="clip0_3549_351">
<rect width="20" height="20" fill="white" transform="translate(0.5 0.577637)"/>
</clipPath>
</defs>
</svg>
