<svg width="20" height="21" viewBox="0 0 20 21" fill="none" xmlns="http://www.w3.org/2000/svg">
<g clip-path="url(#clip0_3549_285)">
<path d="M9.2113 20.5333C6.84179 20.3432 4.61738 19.3157 2.9365 17.6348C1.25562 15.9539 0.228088 13.7295 0.0379667 11.36C0.0549933 11.36 0.0710183 11.366 0.0880449 11.364C0.390432 11.3269 0.694818 11.3085 0.999469 11.3089C5.55559 11.3089 9.26238 15.0157 9.26238 19.5718C9.26238 19.8813 9.24435 20.1818 9.20729 20.4832C9.20529 20.5003 9.2123 20.5163 9.2113 20.5333ZM10.8188 0.633211C10.7817 0.935598 10.7633 1.23998 10.7637 1.54464C10.7637 6.10075 14.4705 9.80755 19.0266 9.80755C19.3361 9.80755 19.6366 9.78952 19.9381 9.75246C19.9551 9.75046 19.9711 9.75747 19.9881 9.75647C19.798 7.38696 18.7705 5.16254 17.0896 3.48166C15.4087 1.80078 13.1843 0.773254 10.8148 0.583133C10.8148 0.600159 10.8208 0.616185 10.8188 0.633211ZM19.0266 11.3099C13.6422 11.3099 9.26138 6.92905 9.26138 1.54464C9.26138 1.21612 9.28542 0.897624 9.31947 0.578125C6.91141 0.744521 4.64481 1.77634 2.93799 3.48316C1.23118 5.18998 0.199355 7.45657 0.032959 9.86463C0.352458 9.83058 0.670956 9.80654 0.999469 9.80654C6.38388 9.80654 10.7647 14.1874 10.7647 19.5718C10.7647 19.9003 10.7407 20.2188 10.7066 20.5383C13.1149 20.3717 15.3816 19.3397 17.0886 17.6328C18.7955 15.9258 19.8275 13.6591 19.9942 11.2508C19.6732 11.2874 19.3506 11.3068 19.0276 11.3089L19.0266 11.3099Z" fill="white"/>
</g>
<defs>
<clipPath id="clip0_3549_285">
<rect width="20" height="20" fill="white" transform="translate(0 0.577637)"/>
</clipPath>
</defs>
</svg>
