<svg width="24" height="21" viewBox="0 0 24 21" fill="none" xmlns="http://www.w3.org/2000/svg">
<g clip-path="url(#clip0_3548_276)">
<path d="M23.0567 14.8887L22.9286 14.3669C22.852 14.0563 22.6739 13.7802 22.4226 13.5822C22.1703 13.3853 21.8597 13.278 21.5396 13.2772C21.4506 13.2773 21.3635 13.3023 21.2878 13.3491C20.8653 13.6096 19.9832 14.0441 18.8398 14.0067C18.2844 13.9909 17.8062 13.7539 17.4216 13.5045C18.0766 12.2489 18.4185 10.8535 18.4182 9.43731C18.4182 4.55952 14.4517 0.593018 9.57394 0.593018C4.69615 0.593018 0.724854 4.55952 0.724854 9.43731C0.724854 13.3108 3.22994 16.6034 6.70146 17.8001C6.75108 18.2412 6.92828 18.6583 7.21137 19.0002C7.49446 19.3422 7.87113 19.5942 8.29526 19.7253C8.51733 19.7943 8.7533 19.849 8.94659 19.8279L8.984 19.8298V20.0898C8.984 20.3536 9.19983 20.5694 9.46363 20.5694C9.72742 20.5694 9.94325 20.3536 9.94325 20.0898V19.8778C10.2224 19.8869 10.5015 19.8927 10.7807 19.8927C10.8488 19.8927 10.9164 19.8879 10.984 19.8879V20.0898C10.984 20.3536 11.1999 20.5694 11.4637 20.5694C11.7275 20.5694 11.9433 20.3536 11.9433 20.0898V19.8644C12.2907 19.8478 12.6377 19.8243 12.9841 19.7939V20.0898C12.9841 20.3536 13.1999 20.5694 13.4637 20.5694C13.7323 20.5694 13.9433 20.3536 13.9433 20.0898V19.6955C14.4062 19.6385 14.869 19.5737 15.3261 19.4927C15.4724 19.4687 15.6158 19.4883 15.7434 19.5516L15.9131 19.638C16.1614 19.7639 16.4358 19.8296 16.7141 19.8298H18.6437V20.0898C18.6437 20.3536 18.8547 20.5694 19.1233 20.5694C19.3871 20.5694 19.6029 20.3536 19.6029 20.0898V19.8293H20.6437V20.0898C20.6437 20.3536 20.8595 20.5694 21.1233 20.5694C21.3871 20.5694 21.6029 20.3536 21.6029 20.0898V19.8082C22.3056 19.7085 22.884 19.2111 23.0533 18.5257C23.3473 17.3363 23.3483 16.0792 23.0567 14.8887ZM10.054 15.0921V13.2887L13.2771 10.9817L13.9102 11.2599L15.2244 11.8306L15.2997 12.893H15.1179C15.033 12.893 14.9491 12.916 14.8752 12.9592C14.6273 13.1045 14.3678 13.2901 14.093 13.4863C13.5524 13.8714 12.9395 14.3084 12.2771 14.5352C11.5534 14.7827 10.809 14.9635 10.0536 15.0916L10.054 15.0921ZM16.0254 4.90485C16.9654 6.243 17.4595 7.80179 17.4595 9.43251L15.6033 10.9481L13.6129 10.0848L12.5049 6.27658L13.6129 4.62187L16.0254 4.90485ZM7.49764 1.82565C8.85019 1.46114 10.2939 1.46114 11.6512 1.82565L12.8215 4.08469L11.7231 5.71542H7.4209L6.32736 4.08469L7.49764 1.82565ZM1.68458 9.43251C1.68938 7.80179 2.18339 6.23821 3.11866 4.90485L5.53597 4.62187L6.64391 6.27658L5.53118 10.0848L3.54073 10.9481L1.68458 9.43251ZM3.7134 14.718L3.92443 11.8306L5.27218 11.2455L5.87171 10.9817L9.0948 13.2887V15.2216C8.90055 15.2413 8.70726 15.2648 8.51253 15.2763C8.47481 15.2786 8.43748 15.2852 8.40126 15.2959C7.69045 15.5118 7.14176 16.0144 6.86933 16.6394L6.62952 16.7564C5.52159 16.3103 4.52397 15.6101 3.7134 14.718ZM22.1224 18.2955C22.0399 18.6284 21.7128 18.8701 21.3449 18.8701H16.7136C16.587 18.8701 16.4604 18.8399 16.3472 18.7828L16.1765 18.696C15.8622 18.5373 15.5047 18.4854 15.1582 18.5483C14.5141 18.6629 13.8584 18.7531 13.2081 18.8164C11.8191 18.9507 10.4085 18.9699 8.98016 18.8701C8.79321 18.8703 8.60827 18.8314 8.43727 18.7558C8.26627 18.6802 8.11301 18.5697 7.98734 18.4312C7.75321 18.1755 7.62766 17.8387 7.63721 17.4921C7.65112 16.9377 8.05689 16.425 8.63004 16.2298C9.97834 16.144 11.3093 15.8795 12.5879 15.4432C13.3826 15.1707 14.0556 14.6906 14.6498 14.2667C14.8637 14.1141 15.068 13.9683 15.2527 13.8523H16.258L16.3913 13.9511C16.8829 14.3185 17.7065 14.9329 18.811 14.9659C19.7962 14.9938 20.7919 14.742 21.6485 14.2499C21.7329 14.2695 21.8102 14.3122 21.8717 14.3732C21.9333 14.4341 21.9767 14.511 21.9972 14.5952L22.1253 15.1175C22.3795 16.1573 22.379 17.2566 22.1224 18.2955ZM15.7083 14.6053C15.7247 14.6203 15.7345 14.6411 15.7355 14.6633C15.7366 14.6855 15.7289 14.7072 15.7141 14.7237C15.5606 14.8945 15.2968 15.093 14.9294 15.3142C14.9104 15.3249 14.8879 15.3277 14.8668 15.3221C14.8457 15.3165 14.8276 15.3029 14.8164 15.2842C14.8051 15.2654 14.8016 15.2431 14.8066 15.2218C14.8116 15.2005 14.8247 15.182 14.8431 15.1703C15.1956 14.9578 15.4474 14.7698 15.5899 14.611C15.605 14.5948 15.6258 14.5851 15.6479 14.584C15.6701 14.583 15.6918 14.5906 15.7083 14.6053ZM13.6843 15.8705C13.6936 15.8908 13.6945 15.914 13.6868 15.9349C13.679 15.9559 13.6633 15.9729 13.6431 15.9823C13.3505 16.1166 13.044 16.2485 12.7563 16.3631C12.7355 16.3713 12.7124 16.371 12.6919 16.3621C12.6714 16.3533 12.6552 16.3368 12.6469 16.3161C12.6429 16.3058 12.6409 16.2948 12.6412 16.2838C12.6414 16.2727 12.6438 16.2618 12.6483 16.2517C12.6527 16.2416 12.6591 16.2324 12.6671 16.2248C12.6751 16.2172 12.6845 16.2112 12.6949 16.2072C12.9907 16.0889 13.2834 15.9629 13.5726 15.8293C13.5826 15.8246 13.5935 15.822 13.6045 15.8215C13.6156 15.8211 13.6267 15.8228 13.637 15.8266C13.6474 15.8305 13.657 15.8363 13.6651 15.8439C13.6732 15.8514 13.6797 15.8604 13.6843 15.8705ZM11.4368 16.7051C11.4417 16.7267 11.4378 16.7495 11.4261 16.7683C11.4143 16.7872 11.3956 16.8007 11.374 16.8058C11.0606 16.8774 10.7452 16.9399 10.4282 16.9933C10.4062 16.9969 10.3836 16.9917 10.3655 16.9788C10.3473 16.9658 10.335 16.9462 10.3313 16.9243C10.3276 16.9023 10.3328 16.8799 10.3457 16.8617C10.3585 16.8436 10.378 16.8312 10.3999 16.8274C10.7178 16.7741 11.033 16.7113 11.3366 16.6418C11.3582 16.6371 11.3808 16.6411 11.3996 16.6528C11.4184 16.6645 11.4319 16.6831 11.4373 16.7046L11.4368 16.7051Z" fill="white"/>
</g>
<defs>
<clipPath id="clip0_3548_276">
<rect width="22.5761" height="20" fill="white" transform="translate(0.711914 0.577637)"/>
</clipPath>
</defs>
</svg>
