<svg width="36" height="37" viewBox="0 0 36 37" fill="none" xmlns="http://www.w3.org/2000/svg">
<path d="M0 18.0776C0 8.15211 8.07448 0.0776367 18 0.0776367C27.9255 0.0776367 36 8.15211 36 18.0776C36 28.0032 27.9255 36.0776 18 36.0776C8.07448 36.0776 0 28.0032 0 18.0776ZM19.0605 23.6382L26.5605 16.1381C26.7 15.999 26.8106 15.8337 26.886 15.6517C26.9614 15.4697 27.0002 15.2746 27 15.0776C27.0002 14.8806 26.9614 14.6855 26.886 14.5035C26.8106 14.3215 26.7 14.1562 26.5605 14.0171C25.974 13.4306 25.026 13.4306 24.4395 14.0171L18 20.4567L11.5605 14.0172C10.974 13.4307 10.026 13.4307 9.43952 14.0172C8.85305 14.6036 8.85305 15.5517 9.43952 16.1381L16.9395 23.6382C17.526 24.2246 18.474 24.2246 19.0605 23.6382Z" fill="#ECECEC"/>
</svg>
