<svg width="36" height="37" viewBox="0 0 36 37" fill="none" xmlns="http://www.w3.org/2000/svg">
<path d="M18 0.0776367C8.07448 0.0776367 0 8.15211 0 18.0776C0 28.0032 8.07448 36.0776 18 36.0776C27.9255 36.0776 36 28.0032 36 18.0776C36 8.15211 27.9255 0.0776367 18 0.0776367ZM23.5605 19.1382L16.0605 26.6381C15.9214 26.7776 15.7561 26.8882 15.5741 26.9637C15.3921 27.0391 15.197 27.0778 15 27.0776C14.803 27.0778 14.6079 27.0391 14.4259 26.9636C14.2439 26.8882 14.0786 26.7776 13.9395 26.6381C13.353 26.0516 13.353 25.1036 13.9395 24.5171L20.379 18.0776L13.9395 11.6381C13.353 11.0517 13.353 10.1036 13.9395 9.51716C14.526 8.93068 15.474 8.93068 16.0605 9.51716L23.5605 17.0172C24.147 17.6037 24.147 18.5516 23.5605 19.1382Z" fill="#A42319"/>
</svg>
