<svg width="13" height="14" viewBox="0 0 13 14" fill="none" xmlns="http://www.w3.org/2000/svg">
<path d="M1.2802 4.53481C1.03898 4.53481 0.834317 4.61893 0.666079 4.78717C0.497841 4.95541 0.413696 5.15729 0.413696 5.39291V9.01067C0.413696 9.25219 0.497815 9.45668 0.666079 9.62494C0.834317 9.79318 1.03898 9.87733 1.2802 9.87733C1.52124 9.87733 1.72467 9.79321 1.8903 9.62494C2.0556 9.45671 2.13848 9.25219 2.13848 9.01067V5.39291C2.13848 5.15726 2.05436 4.95541 1.8861 4.78717C1.71783 4.61893 1.51583 4.53481 1.2802 4.53481ZM8.24663 1.28715L8.84399 0.185168C8.8832 0.112212 8.86925 0.0562679 8.80202 0.0169296C8.72904 -0.0169915 8.67297 0.000196892 8.63378 0.0672796L8.02806 1.17807C7.49507 0.942418 6.93135 0.824377 6.3369 0.824377C5.74232 0.824377 5.17854 0.942443 4.64575 1.17807L4.04001 0.0672796C4.00065 0.000196892 3.94457 -0.0168396 3.87177 0.0169296C3.80438 0.0564451 3.79044 0.112212 3.8298 0.185168L4.42719 1.28715C3.82145 1.59606 3.33901 2.02627 2.98005 2.57873C2.6211 3.13149 2.44154 3.73554 2.44154 4.39194H10.2238C10.2238 3.73569 10.0442 3.13162 9.68528 2.57873C9.3263 2.02627 8.84665 1.59606 8.24663 1.28715ZM4.79293 2.88999C4.72833 2.95475 4.65117 2.98697 4.56148 2.98697C4.47162 2.98697 4.39603 2.95475 4.33436 2.88999C4.2727 2.82554 4.24187 2.74869 4.24187 2.6587C4.24187 2.56901 4.2727 2.492 4.33436 2.4274C4.39603 2.36295 4.47179 2.33073 4.56148 2.33073C4.65117 2.33073 4.72833 2.36295 4.79293 2.4274C4.85738 2.49215 4.88976 2.56901 4.88976 2.6587C4.88958 2.74854 4.85723 2.82554 4.79293 2.88999ZM8.3391 2.88999C8.27731 2.95475 8.20154 2.98697 8.112 2.98697C8.02211 2.98697 7.94498 2.95475 7.88051 2.88999C7.81593 2.82554 7.7837 2.74869 7.7837 2.6587C7.7837 2.56901 7.81593 2.492 7.88051 2.4274C7.94498 2.36295 8.02211 2.33073 8.112 2.33073C8.20169 2.33073 8.27728 2.36295 8.3391 2.4274C8.40082 2.49215 8.4316 2.56901 8.4316 2.6587C8.4316 2.74854 8.40079 2.82554 8.3391 2.88999ZM2.47496 10.2979C2.47496 10.5562 2.56465 10.7748 2.74405 10.9542C2.9236 11.1336 3.14222 11.2233 3.40029 11.2233H4.02292L4.03145 13.1333C4.03145 13.3745 4.11557 13.5794 4.28381 13.7476C4.45205 13.9159 4.65408 14 4.88956 14C5.13062 14 5.33541 13.9159 5.50368 13.7476C5.67194 13.5794 5.75606 13.3746 5.75606 13.1333V11.2235H6.91707V13.1333C6.91707 13.3745 7.00117 13.5794 7.16943 13.7476C7.33769 13.9159 7.54231 14 7.78355 14C8.02462 14 8.22941 13.9159 8.39768 13.7476C8.56594 13.5794 8.65003 13.3746 8.65003 13.1333V11.2235H9.28107C9.53342 11.2235 9.74923 11.1337 9.92896 10.9543C10.1083 10.7749 10.1981 10.5563 10.1981 10.2981V4.69452H2.47496V10.2979ZM11.3933 4.53481C11.1576 4.53481 10.9558 4.61769 10.7875 4.78299C10.6193 4.9486 10.5351 5.15202 10.5351 5.39291V9.01067C10.5351 9.25219 10.6192 9.45668 10.7875 9.62494C10.9558 9.79321 11.1578 9.87733 11.3933 9.87733C11.6343 9.87733 11.8391 9.79321 12.0074 9.62494C12.1756 9.45668 12.2597 9.25219 12.2597 9.01067V5.39291C12.2597 5.152 12.1756 4.9486 12.0074 4.78299C11.8391 4.61769 11.6343 4.53481 11.3933 4.53481Z" fill="#F6FF00"/>
</svg>
