<svg width="18" height="17" viewBox="0 0 18 17" fill="none" xmlns="http://www.w3.org/2000/svg">
<path fill-rule="evenodd" clip-rule="evenodd" d="M8.46875 10.625C8.46875 10.2021 8.30088 9.79678 8.00178 9.49822C7.85389 9.35012 7.67825 9.23265 7.4849 9.15252C7.29155 9.07239 7.08429 9.03118 6.875 9.03125H3.15625C2.73338 9.03125 2.32803 9.19913 2.02947 9.49822C1.88137 9.64611 1.7639 9.82175 1.68377 10.0151C1.60364 10.2085 1.56243 10.4157 1.5625 10.625V14.3438C1.5625 14.7666 1.73038 15.172 2.02947 15.4705C2.17736 15.6186 2.353 15.7361 2.54635 15.8162C2.7397 15.8964 2.94696 15.9376 3.15625 15.9375H6.875C7.29787 15.9375 7.70322 15.7696 8.00178 15.4705C8.14988 15.3226 8.26735 15.147 8.34748 14.9536C8.42761 14.7603 8.46882 14.553 8.46875 14.3438V10.625ZM16.4375 10.625C16.4375 10.2021 16.2696 9.79678 15.9705 9.49822C15.8226 9.35012 15.647 9.23265 15.4536 9.15252C15.2603 9.07239 15.053 9.03118 14.8438 9.03125H11.125C10.7021 9.03125 10.2968 9.19913 9.99822 9.49822C9.85012 9.64611 9.73265 9.82175 9.65252 10.0151C9.57239 10.2085 9.53118 10.4157 9.53125 10.625V14.3438C9.53125 14.7666 9.69913 15.172 9.99822 15.4705C10.1461 15.6186 10.3218 15.7361 10.5151 15.8162C10.7085 15.8964 10.9157 15.9376 11.125 15.9375H14.8438C15.2666 15.9375 15.672 15.7696 15.9705 15.4705C16.1186 15.3226 16.2361 15.147 16.3162 14.9536C16.3964 14.7603 16.4376 14.553 16.4375 14.3438V10.625ZM8.46875 2.65625C8.46875 2.23338 8.30088 1.82803 8.00178 1.52947C7.85389 1.38137 7.67825 1.2639 7.4849 1.18377C7.29155 1.10364 7.08429 1.06243 6.875 1.0625H3.15625C2.73338 1.0625 2.32803 1.23038 2.02947 1.52947C1.88137 1.67736 1.7639 1.853 1.68377 2.04635C1.60364 2.2397 1.56243 2.44696 1.5625 2.65625V6.375C1.5625 6.79787 1.73038 7.20322 2.02947 7.50178C2.17736 7.64988 2.353 7.76735 2.54635 7.84748C2.7397 7.92761 2.94696 7.96882 3.15625 7.96875H6.875C7.29787 7.96875 7.70322 7.80088 8.00178 7.50178C8.14988 7.35389 8.26735 7.17825 8.34748 6.9849C8.42761 6.79155 8.46882 6.58429 8.46875 6.375V2.65625Z" fill="#8C1C15"/>
<path fill-rule="evenodd" clip-rule="evenodd" d="M14.1111 7.85878L16.3275 5.64241C16.6263 5.34353 16.7941 4.93823 16.7941 4.51563C16.7941 4.09302 16.6263 3.68772 16.3275 3.38884L14.1111 1.17247C13.8123 0.873687 13.407 0.705841 12.9843 0.705841C12.5617 0.705841 12.1564 0.873687 11.8576 1.17247L9.64119 3.38884C9.34241 3.68772 9.17456 4.09302 9.17456 4.51563C9.17456 4.93823 9.34241 5.34353 9.64119 5.64241L11.8576 7.85878C12.1564 8.15756 12.5617 8.32541 12.9843 8.32541C13.407 8.32541 13.8123 8.15756 14.1111 7.85878Z" fill="#D73023"/>
</svg>
