<svg width="56" height="38" viewBox="0 0 56 38" fill="none" xmlns="http://www.w3.org/2000/svg">
<path fill-rule="evenodd" clip-rule="evenodd" d="M8.063 7.92556L7.32584 8.77325C3.0143 13.7298 0.857178 16.2096 0.857178 19.1653C0.857178 22.1211 3.01431 24.6009 7.32587 29.5575L7.34432 29.5787L8.04461 30.3813C11.2339 34.048 12.8299 35.88 14.9823 36.856C17.1375 37.832 19.5885 37.832 24.4905 37.832H36.189C43.7945 37.832 47.5972 37.832 50.3305 36.0347C51.5128 35.2555 52.5274 34.2551 53.3162 33.0907C55.1429 30.4 55.1429 26.656 55.1429 19.1653C55.1429 11.6747 55.1429 7.93068 53.3162 5.24268C52.529 4.07734 51.5112 3.07734 50.3305 2.29868C47.5972 0.501343 43.7945 0.501343 36.189 0.501343H24.4905C19.5885 0.501343 17.1375 0.501343 14.9823 1.47734C12.8313 2.45146 11.24 4.2783 8.063 7.92556ZM30.7143 11.8338C30.1749 11.8338 29.6575 12.0441 29.2758 12.4187C28.8946 12.7937 28.6804 13.302 28.6804 13.832C28.6804 14.362 28.8946 14.8703 29.2758 15.2453L33.2658 19.1653L29.2758 23.0853C28.9162 23.4645 28.7204 23.9659 28.7297 24.4841C28.739 25.0022 28.9527 25.4966 29.3257 25.863C29.6986 26.2294 30.2018 26.4393 30.7292 26.4485C31.2566 26.4576 31.767 26.2653 32.1529 25.912L36.1429 21.992L40.1329 25.912C40.3193 26.1085 40.544 26.2661 40.7937 26.3754C41.0435 26.4847 41.313 26.5435 41.5864 26.5482C41.8597 26.553 42.1312 26.5036 42.3847 26.403C42.6382 26.3024 42.8684 26.1527 43.0617 25.9628C43.255 25.7728 43.4074 25.5466 43.5098 25.2976C43.6122 25.0486 43.6625 24.7818 43.6577 24.5133C43.6528 24.2447 43.593 23.9799 43.4818 23.7346C43.3705 23.4892 43.2101 23.2684 43.0101 23.0853L39.0201 19.1653L43.0101 15.2453C43.2101 15.0622 43.3705 14.8414 43.4818 14.5961C43.593 14.3508 43.6528 14.0859 43.6577 13.8174C43.6625 13.5488 43.6122 13.2821 43.5098 13.0331C43.4074 12.784 43.255 12.5578 43.0617 12.3679C42.8684 12.178 42.6382 12.0283 42.3847 11.9277C42.1312 11.8271 41.8597 11.7777 41.5864 11.7824C41.313 11.7872 41.0435 11.8459 40.7937 11.9552C40.544 12.0646 40.3193 12.2222 40.1329 12.4187L36.1429 16.3387L32.1529 12.4187C31.7712 12.0441 31.2538 11.8338 30.7143 11.8338Z" fill="#D73023"/>
</svg>
