<svg width="204" height="127" viewBox="0 0 204 127" fill="none" xmlns="http://www.w3.org/2000/svg">
<g clip-path="url(#clip0_3533_2735)">
<path d="M142.363 37.3284C142.397 34.2588 143.339 31.2486 145.072 28.6785C146.804 26.1084 149.248 24.0939 152.096 22.8896C154.943 21.6853 158.066 21.3454 161.069 21.9129C164.072 22.4803 166.82 23.9296 168.966 26.0775C171.112 28.2254 172.559 30.9755 173.125 33.9799C173.691 36.9842 173.35 40.108 172.145 42.9562C170.94 45.8045 168.925 48.2491 166.355 49.9811C163.786 51.7131 160.776 52.6547 157.708 52.6867C153.595 52.725 149.67 51.1295 146.793 48.2502C143.916 45.371 142.323 41.4431 142.363 37.3284ZM146.388 30.2129C145.251 32.0421 144.559 34.1065 144.368 36.2357L147.551 33.9067L146.388 30.2129ZM144.355 38.6237C144.526 40.5867 145.128 42.4788 146.118 44.1658L151.616 44.1084L153.288 41.8796L151.579 36.2012L148.847 35.3384L144.355 38.6237ZM153.491 35.7894L155.083 41.0753L160.586 41.0178L162.292 35.6985L157.927 32.5453L153.491 35.7894ZM162.365 41.7849L163.988 43.9793L169.487 43.9219C170.513 42.2142 171.156 40.3095 171.37 38.3428L166.949 35.1495L164.198 36.0695L162.365 41.7849ZM168.274 33.6895L171.408 35.9526C171.264 33.8271 170.617 31.7771 169.519 29.9715L168.274 33.6895ZM152.546 49.763L151.377 46.0507L147.478 46.0914C148.848 47.7022 150.584 48.9599 152.546 49.763ZM157.729 50.7467C158.713 50.7342 159.694 50.6147 160.656 50.3902L162.412 45.1441L160.792 42.9555L154.835 43.0176L153.168 45.2396L154.809 50.4513C155.767 50.6557 156.746 50.7547 157.729 50.7467ZM168.084 45.8764L164.185 45.9171L162.935 49.6546C164.915 48.8103 166.678 47.5161 168.084 45.8764ZM163.434 24.6675L158.946 27.9509L158.915 30.8416L163.611 34.2328L166.37 33.3107L168.122 28.0715C166.832 26.6051 165.232 25.4437 163.434 24.6675ZM158.024 23.5863C156.96 23.6014 155.899 23.7421 154.863 24.0053L157.995 26.2674L161.177 23.9394C160.146 23.6977 159.088 23.5792 158.024 23.5863ZM147.827 28.2833L149.466 33.4871L152.205 34.3518L156.976 30.8618L157.007 27.9712L152.59 24.7817C150.775 25.5955 149.149 26.7896 147.827 28.2833Z" fill="white"/>
<path d="M35.2089 98.4139C24.7013 96.0619 18.0578 85.3883 20.7154 75.2836C23.3823 65.1431 34.6166 58.5091 45.0874 60.8529C52.049 62.4111 57.3378 67.6366 59.319 73.9487C60.3514 77.2394 60.4421 80.7092 59.581 83.9832C56.9113 94.1343 45.6687 100.755 35.2089 98.4139ZM57.8521 84.3729L54.5832 83.6412L54.5832 83.6413C53.947 85.6092 52.8647 87.4441 51.4119 89.0177L53.7948 91.2014C55.6808 89.2088 57.0687 86.8727 57.8521 84.3729ZM52.6813 92.2837L50.3029 90.1041C48.777 91.4554 46.9957 92.5101 45.0605 93.2082L45.9617 96.2624C48.4497 95.3831 50.7361 94.0293 52.6813 92.2837ZM36.3585 97.0994C39.0029 97.5696 41.7751 97.4426 44.4615 96.7277L43.5587 93.6675C41.4538 94.2005 39.2801 94.2935 37.1893 93.9402L36.3585 97.0994ZM34.8403 96.7595L35.6711 93.6004C33.6373 93.0305 31.7515 92.0288 30.1454 90.6652L27.8228 93.0032C29.8555 94.7745 32.2562 96.0595 34.8403 96.7595ZM26.7206 91.9556L29.0388 89.6219C27.6655 88.1833 26.6062 86.4927 25.9212 84.6466L22.7246 85.5783C23.5864 87.9522 24.946 90.1221 26.7206 91.9556ZM22.2725 84.1456L25.4753 83.2122C24.9657 81.1992 24.9152 79.1108 25.3273 77.0927L22.0585 76.361C21.5129 78.9141 21.5861 81.5772 22.2725 84.1456ZM22.4443 74.8938L25.7132 75.6255C26.3493 73.6576 27.4317 71.8227 28.8845 70.2491L26.5016 68.0653C24.6156 70.058 23.2277 72.394 22.4443 74.8938ZM27.6151 66.9831L29.9936 69.1627C31.5194 67.8114 33.3008 66.7567 35.2359 66.0587L34.3348 63.0044C31.8467 63.8837 29.5603 65.2375 27.6151 66.9831ZM43.9379 62.1675C41.2934 61.6972 38.5213 61.8243 35.8348 62.5392L36.7376 65.5993C38.8426 65.0663 41.0163 64.9733 43.1071 65.3267L43.9379 62.1675ZM27.0159 76.6939C25.2008 83.5952 29.7258 90.7391 36.8103 92.3249C43.9574 93.9247 51.4834 89.4062 53.2805 82.5729C55.0897 75.694 50.5981 68.5338 43.486 66.9419C36.3673 65.3484 28.8233 69.8215 27.0159 76.6939ZM45.4561 62.5072L44.6253 65.6664C46.659 66.2362 48.5449 67.238 50.151 68.6016L52.4736 66.2635C50.4409 64.4922 48.0402 63.2072 45.4561 62.5072ZM53.5758 67.3112L51.2576 69.6449C52.6308 71.0834 53.6901 72.7739 54.3751 74.6199L57.5719 73.6885C56.71 71.3146 55.3503 69.1447 53.5758 67.3112ZM58.0238 75.1211L54.821 76.0543C55.3307 78.0673 55.3792 80.1632 54.9671 82.1814L58.236 82.9131C58.7816 80.36 58.7103 77.6895 58.0238 75.1211Z" fill="white"/>
<path d="M50.2423 85.2273C49.3099 86.744 48.0024 88.0607 46.4611 89.0352C46.096 89.2659 45.6117 89.1725 45.3794 88.8262C45.1471 88.4801 45.2546 88.0124 45.6197 87.7815C46.9563 86.9366 48.0898 85.7954 48.8976 84.4814C49.1194 84.1206 49.6 83.9934 49.9723 84.1999C50.3437 84.4059 50.4645 84.8658 50.2423 85.2273ZM47.1673 83.5394C46.1774 83.3179 45.4946 82.5153 45.4058 81.5909L43.68 81.2047C42.9996 82.5726 41.5288 83.4435 39.9662 83.4036L39.5276 85.0715C40.3317 85.5723 40.7521 86.5301 40.5005 87.4869C40.1812 88.7009 38.8995 89.4598 37.6433 89.1786C36.3871 88.8975 35.6249 87.681 35.9442 86.467C36.1958 85.5103 37.0453 84.8366 38.0088 84.7315L38.4474 83.0636C37.0388 82.4385 36.1641 81.0426 36.2389 79.5391L34.5131 79.1528C33.975 79.9368 32.9696 80.3615 31.9795 80.1399C30.7234 79.8587 29.9611 78.6422 30.2804 77.4282C30.5997 76.2142 31.8814 75.4553 33.1376 75.7365C34.1276 75.958 34.8103 76.7606 34.8992 77.685L36.6249 78.0713C37.3053 76.7033 38.7762 75.8324 40.3387 75.8723L40.7774 74.2044C39.9732 73.7037 39.5528 72.7458 39.8044 71.789C40.1237 70.575 41.4055 69.8161 42.6617 70.0973C43.9178 70.3784 44.6801 71.5949 44.3608 72.8089C44.1092 73.7656 43.2597 74.4393 42.2962 74.5444L41.8575 76.2123C43.2661 76.8374 44.1409 78.2334 44.066 79.7369L45.7918 80.1231C46.3299 79.3391 47.3354 78.9145 48.3254 79.1361C49.5816 79.4172 50.3438 80.6337 50.0245 81.8477C49.7052 83.0617 48.4235 83.8206 47.1673 83.5394ZM32.7516 77.2043C32.3329 77.1105 31.9056 77.3635 31.7992 77.7682C31.6928 78.1728 31.9468 78.5783 32.3656 78.6721C32.7843 78.7658 33.2115 78.5128 33.318 78.1081C33.4244 77.7035 33.1703 77.298 32.7516 77.2043ZM38.0293 87.7108C38.448 87.8046 38.8753 87.5516 38.9817 87.1469C39.0881 86.7423 38.8341 86.3368 38.4153 86.243C37.9966 86.1493 37.5694 86.4023 37.4629 86.807C37.3565 87.2116 37.6106 87.6171 38.0293 87.7108ZM42.2756 71.5651C41.8569 71.4713 41.4296 71.7243 41.3232 72.129C41.2168 72.5337 41.4709 72.9391 41.8896 73.0329C42.3083 73.1266 42.7356 72.8736 42.842 72.4689C42.9484 72.0643 42.6944 71.6588 42.2756 71.5651ZM40.7315 77.4363C39.4753 77.1551 38.1936 77.914 37.8743 79.128C37.555 80.342 38.3172 81.5585 39.5734 81.8396C40.8296 82.1208 42.1114 81.3619 42.4306 80.1479C42.7499 78.9339 41.9877 77.7174 40.7315 77.4363ZM47.9394 80.6039C47.5206 80.5101 47.0934 80.7631 46.987 81.1678C46.8805 81.5724 47.1346 81.9779 47.5533 82.0716C47.9721 82.1654 48.3993 81.9124 48.5057 81.5077C48.6122 81.1031 48.3581 80.6976 47.9394 80.6039Z" fill="white"/>
<mask id="path-4-outside-1_3533_2735" maskUnits="userSpaceOnUse" x="-4" y="34.987" width="212" height="44" fill="black">
<rect fill="white" x="-4" y="34.987" width="212" height="44"/>
<path fill-rule="evenodd" clip-rule="evenodd" d="M157.827 45.6964L160.439 71.7591C167.486 71.1157 174.524 70.3529 181.55 69.4723L180.677 63.1226C176.394 63.6601 172.106 64.1518 167.815 64.6L167.399 60.9672C170.973 60.5941 174.544 60.1902 178.112 59.7555L177.288 53.5896C173.759 54.0198 170.227 54.4192 166.692 54.7878L166.294 51.3051C170.365 50.8802 174.433 50.4148 178.496 49.908L177.628 43.5575C171.038 44.3796 164.436 45.092 157.827 45.6964ZM188.209 48.6167L191.235 68.1826C193.925 67.8034 196.614 67.4063 199.299 66.9919L195.997 47.4674C198.432 47.092 200.866 46.7016 203.298 46.2962L202.145 39.987C194.817 41.2084 187.47 42.294 180.108 43.2429L181.005 49.5897C183.408 49.2796 185.809 48.9553 188.209 48.6175V48.6167ZM17.8968 50.634C17.7314 48.7827 16.8779 47.4861 14.2603 47.104C11.763 46.7361 10.5764 47.5064 10.3708 48.7331C10.1335 50.1467 11.1223 50.8359 13.7026 51.5957C14.7967 51.9207 15.8915 52.2436 16.9879 52.5626C23.4847 54.4568 25.5572 57.0055 24.9632 61.3456C24.3106 66.1923 19.6608 69.4896 11.2789 68.2771C2.94206 67.0534 -1.25759 63.1736 0.331615 57.1001C2.95867 57.5378 5.5889 57.959 8.2207 58.3629C7.6907 60.2622 8.49599 61.9229 12.3729 62.4919C15.3512 62.9236 16.7466 62.2367 16.9665 60.7832C17.1587 59.5145 16.4025 58.7668 14.1504 58.1001C13.0698 57.7795 11.9908 57.456 10.9126 57.1301C4.36041 55.1519 1.7555 52.2053 2.5766 47.7226C3.36527 43.4464 7.44152 40.1491 15.3124 41.3128C22.7562 42.3946 26.2518 46.0349 25.611 51.6235C23.0386 51.3096 20.4661 50.9801 17.8968 50.634ZM27.591 59.3155L29.6675 43.7692C32.2408 44.083 34.8172 44.3803 37.3936 44.6603L35.5766 59.8944C35.2127 62.9251 36.4642 64.5827 39.41 64.8838C42.3567 65.1818 43.9443 63.8125 44.2567 60.7772L45.8388 45.5192C48.4184 45.7624 51.0004 45.9899 53.5824 46.2009L52.1854 61.8163C51.5763 68.8282 46.8672 72.4911 38.6546 71.6637C30.4435 70.8207 26.6394 66.2922 27.591 59.3155ZM57.1389 46.4809L54.9738 72.5811C57.6792 72.7861 60.3862 72.973 63.0939 73.1427L63.6239 65.4371C65.1783 65.5347 66.7327 65.6263 68.2871 65.7119C74.9303 66.0767 79.6204 62.6871 79.8364 57.0063C80.0539 51.2804 75.8005 47.6355 69.4041 47.2842C65.3136 47.0574 61.2247 46.7902 57.1389 46.4809ZM67.7761 59.4192C66.5357 59.3486 65.2954 59.275 64.055 59.1969L64.4632 53.2578C65.6506 53.3321 66.8379 53.4027 68.0253 53.4703C70.5052 53.6107 71.6799 54.8742 71.5834 56.6429C71.4837 58.4484 70.165 59.5535 67.7761 59.4192ZM81.6328 74.0338L82.5908 47.8682C89.2862 48.0912 95.984 48.2038 102.682 48.2053V54.6092C98.5248 54.6092 94.3679 54.5656 90.2125 54.48L90.1334 57.983C93.6828 58.0558 97.2338 58.0978 100.784 58.1099L100.762 64.326C97.1721 64.314 93.5831 64.2712 89.9942 64.1976L89.9111 67.8507C94.2207 67.9393 98.5319 67.9836 102.842 67.9829L102.843 74.3867C95.7712 74.3882 88.7008 74.2703 81.6328 74.0338ZM131.184 73.6374L130.863 67.1278C130.538 67.1803 130.047 67.2389 129.555 67.2606C127.916 67.3312 125.894 67.3335 124.026 64.3815C127.911 63.305 129.982 60.6789 129.784 56.6534C129.481 50.7045 124.899 47.8345 118.455 48.0019C114.215 48.1122 109.975 48.1776 105.734 48.1978L105.874 74.3799C108.587 74.3664 111.298 74.3356 114.01 74.2876L113.847 65.8883C114.611 65.8748 115.374 65.8598 116.137 65.8432C116.253 66.0925 116.367 66.341 116.483 66.5895C119.429 73.1953 123.607 74.2538 128.667 74.0473C129.58 74.0098 130.53 73.8559 131.184 73.6374ZM113.731 59.9372L113.62 54.2495C115.009 54.2248 116.398 54.1955 117.788 54.1617C120.27 54.1002 121.471 55.2278 121.528 56.8854C121.586 58.5791 120.452 59.7855 118.063 59.8456C116.618 59.8809 115.175 59.9116 113.731 59.9372ZM133.926 73.6217L132.515 47.4741C136.606 47.2729 140.696 47.0304 144.784 46.7459C151.299 46.2872 154.88 48.7519 155.289 52.9966C155.583 56.0731 153.508 58.2195 151.093 59.0505C154.437 59.6196 156.799 61.2247 157.118 64.5264C157.591 69.3597 154.202 72.3274 147.687 72.7944C143.103 73.1202 138.515 73.3957 133.925 73.6217H133.926ZM140.978 57.3809C142.281 57.2998 143.585 57.215 144.887 57.1256C146.823 56.9928 147.711 55.9425 147.587 54.4034C147.462 52.8637 146.428 51.9966 144.513 52.1287C143.221 52.2165 141.929 52.3014 140.638 52.381L140.978 57.3809ZM141.69 67.8312C143.003 67.7501 144.318 67.6645 145.631 67.5745C147.89 67.4198 148.962 66.392 148.828 64.7404C148.693 63.0873 147.478 62.2359 145.242 62.3891C143.94 62.4777 142.638 62.5625 141.336 62.6443L141.689 67.832L141.69 67.8312Z"/>
</mask>
<path fill-rule="evenodd" clip-rule="evenodd" d="M157.827 45.6964L160.439 71.7591C167.486 71.1157 174.524 70.3529 181.55 69.4723L180.677 63.1226C176.394 63.6601 172.106 64.1518 167.815 64.6L167.399 60.9672C170.973 60.5941 174.544 60.1902 178.112 59.7555L177.288 53.5896C173.759 54.0198 170.227 54.4192 166.692 54.7878L166.294 51.3051C170.365 50.8802 174.433 50.4148 178.496 49.908L177.628 43.5575C171.038 44.3796 164.436 45.092 157.827 45.6964ZM188.209 48.6167L191.235 68.1826C193.925 67.8034 196.614 67.4063 199.299 66.9919L195.997 47.4674C198.432 47.092 200.866 46.7016 203.298 46.2962L202.145 39.987C194.817 41.2084 187.47 42.294 180.108 43.2429L181.005 49.5897C183.408 49.2796 185.809 48.9553 188.209 48.6175V48.6167ZM17.8968 50.634C17.7314 48.7827 16.8779 47.4861 14.2603 47.104C11.763 46.7361 10.5764 47.5064 10.3708 48.7331C10.1335 50.1467 11.1223 50.8359 13.7026 51.5957C14.7967 51.9207 15.8915 52.2436 16.9879 52.5626C23.4847 54.4568 25.5572 57.0055 24.9632 61.3456C24.3106 66.1923 19.6608 69.4896 11.2789 68.2771C2.94206 67.0534 -1.25759 63.1736 0.331615 57.1001C2.95867 57.5378 5.5889 57.959 8.2207 58.3629C7.6907 60.2622 8.49599 61.9229 12.3729 62.4919C15.3512 62.9236 16.7466 62.2367 16.9665 60.7832C17.1587 59.5145 16.4025 58.7668 14.1504 58.1001C13.0698 57.7795 11.9908 57.456 10.9126 57.1301C4.36041 55.1519 1.7555 52.2053 2.5766 47.7226C3.36527 43.4464 7.44152 40.1491 15.3124 41.3128C22.7562 42.3946 26.2518 46.0349 25.611 51.6235C23.0386 51.3096 20.4661 50.9801 17.8968 50.634ZM27.591 59.3155L29.6675 43.7692C32.2408 44.083 34.8172 44.3803 37.3936 44.6603L35.5766 59.8944C35.2127 62.9251 36.4642 64.5827 39.41 64.8838C42.3567 65.1818 43.9443 63.8125 44.2567 60.7772L45.8388 45.5192C48.4184 45.7624 51.0004 45.9899 53.5824 46.2009L52.1854 61.8163C51.5763 68.8282 46.8672 72.4911 38.6546 71.6637C30.4435 70.8207 26.6394 66.2922 27.591 59.3155ZM57.1389 46.4809L54.9738 72.5811C57.6792 72.7861 60.3862 72.973 63.0939 73.1427L63.6239 65.4371C65.1783 65.5347 66.7327 65.6263 68.2871 65.7119C74.9303 66.0767 79.6204 62.6871 79.8364 57.0063C80.0539 51.2804 75.8005 47.6355 69.4041 47.2842C65.3136 47.0574 61.2247 46.7902 57.1389 46.4809ZM67.7761 59.4192C66.5357 59.3486 65.2954 59.275 64.055 59.1969L64.4632 53.2578C65.6506 53.3321 66.8379 53.4027 68.0253 53.4703C70.5052 53.6107 71.6799 54.8742 71.5834 56.6429C71.4837 58.4484 70.165 59.5535 67.7761 59.4192ZM81.6328 74.0338L82.5908 47.8682C89.2862 48.0912 95.984 48.2038 102.682 48.2053V54.6092C98.5248 54.6092 94.3679 54.5656 90.2125 54.48L90.1334 57.983C93.6828 58.0558 97.2338 58.0978 100.784 58.1099L100.762 64.326C97.1721 64.314 93.5831 64.2712 89.9942 64.1976L89.9111 67.8507C94.2207 67.9393 98.5319 67.9836 102.842 67.9829L102.843 74.3867C95.7712 74.3882 88.7008 74.2703 81.6328 74.0338ZM131.184 73.6374L130.863 67.1278C130.538 67.1803 130.047 67.2389 129.555 67.2606C127.916 67.3312 125.894 67.3335 124.026 64.3815C127.911 63.305 129.982 60.6789 129.784 56.6534C129.481 50.7045 124.899 47.8345 118.455 48.0019C114.215 48.1122 109.975 48.1776 105.734 48.1978L105.874 74.3799C108.587 74.3664 111.298 74.3356 114.01 74.2876L113.847 65.8883C114.611 65.8748 115.374 65.8598 116.137 65.8432C116.253 66.0925 116.367 66.341 116.483 66.5895C119.429 73.1953 123.607 74.2538 128.667 74.0473C129.58 74.0098 130.53 73.8559 131.184 73.6374ZM113.731 59.9372L113.62 54.2495C115.009 54.2248 116.398 54.1955 117.788 54.1617C120.27 54.1002 121.471 55.2278 121.528 56.8854C121.586 58.5791 120.452 59.7855 118.063 59.8456C116.618 59.8809 115.175 59.9116 113.731 59.9372ZM133.926 73.6217L132.515 47.4741C136.606 47.2729 140.696 47.0304 144.784 46.7459C151.299 46.2872 154.88 48.7519 155.289 52.9966C155.583 56.0731 153.508 58.2195 151.093 59.0505C154.437 59.6196 156.799 61.2247 157.118 64.5264C157.591 69.3597 154.202 72.3274 147.687 72.7944C143.103 73.1202 138.515 73.3957 133.925 73.6217H133.926ZM140.978 57.3809C142.281 57.2998 143.585 57.215 144.887 57.1256C146.823 56.9928 147.711 55.9425 147.587 54.4034C147.462 52.8637 146.428 51.9966 144.513 52.1287C143.221 52.2165 141.929 52.3014 140.638 52.381L140.978 57.3809ZM141.69 67.8312C143.003 67.7501 144.318 67.6645 145.631 67.5745C147.89 67.4198 148.962 66.392 148.828 64.7404C148.693 63.0873 147.478 62.2359 145.242 62.3891C143.94 62.4777 142.638 62.5625 141.336 62.6443L141.689 67.832L141.69 67.8312Z" fill="white"/>
<path fill-rule="evenodd" clip-rule="evenodd" d="M157.827 45.6964L160.439 71.7591C167.486 71.1157 174.524 70.3529 181.55 69.4723L180.677 63.1226C176.394 63.6601 172.106 64.1518 167.815 64.6L167.399 60.9672C170.973 60.5941 174.544 60.1902 178.112 59.7555L177.288 53.5896C173.759 54.0198 170.227 54.4192 166.692 54.7878L166.294 51.3051C170.365 50.8802 174.433 50.4148 178.496 49.908L177.628 43.5575C171.038 44.3796 164.436 45.092 157.827 45.6964ZM188.209 48.6167L191.235 68.1826C193.925 67.8034 196.614 67.4063 199.299 66.9919L195.997 47.4674C198.432 47.092 200.866 46.7016 203.298 46.2962L202.145 39.987C194.817 41.2084 187.47 42.294 180.108 43.2429L181.005 49.5897C183.408 49.2796 185.809 48.9553 188.209 48.6175V48.6167ZM17.8968 50.634C17.7314 48.7827 16.8779 47.4861 14.2603 47.104C11.763 46.7361 10.5764 47.5064 10.3708 48.7331C10.1335 50.1467 11.1223 50.8359 13.7026 51.5957C14.7967 51.9207 15.8915 52.2436 16.9879 52.5626C23.4847 54.4568 25.5572 57.0055 24.9632 61.3456C24.3106 66.1923 19.6608 69.4896 11.2789 68.2771C2.94206 67.0534 -1.25759 63.1736 0.331615 57.1001C2.95867 57.5378 5.5889 57.959 8.2207 58.3629C7.6907 60.2622 8.49599 61.9229 12.3729 62.4919C15.3512 62.9236 16.7466 62.2367 16.9665 60.7832C17.1587 59.5145 16.4025 58.7668 14.1504 58.1001C13.0698 57.7795 11.9908 57.456 10.9126 57.1301C4.36041 55.1519 1.7555 52.2053 2.5766 47.7226C3.36527 43.4464 7.44152 40.1491 15.3124 41.3128C22.7562 42.3946 26.2518 46.0349 25.611 51.6235C23.0386 51.3096 20.4661 50.9801 17.8968 50.634ZM27.591 59.3155L29.6675 43.7692C32.2408 44.083 34.8172 44.3803 37.3936 44.6603L35.5766 59.8944C35.2127 62.9251 36.4642 64.5827 39.41 64.8838C42.3567 65.1818 43.9443 63.8125 44.2567 60.7772L45.8388 45.5192C48.4184 45.7624 51.0004 45.9899 53.5824 46.2009L52.1854 61.8163C51.5763 68.8282 46.8672 72.4911 38.6546 71.6637C30.4435 70.8207 26.6394 66.2922 27.591 59.3155ZM57.1389 46.4809L54.9738 72.5811C57.6792 72.7861 60.3862 72.973 63.0939 73.1427L63.6239 65.4371C65.1783 65.5347 66.7327 65.6263 68.2871 65.7119C74.9303 66.0767 79.6204 62.6871 79.8364 57.0063C80.0539 51.2804 75.8005 47.6355 69.4041 47.2842C65.3136 47.0574 61.2247 46.7902 57.1389 46.4809ZM67.7761 59.4192C66.5357 59.3486 65.2954 59.275 64.055 59.1969L64.4632 53.2578C65.6506 53.3321 66.8379 53.4027 68.0253 53.4703C70.5052 53.6107 71.6799 54.8742 71.5834 56.6429C71.4837 58.4484 70.165 59.5535 67.7761 59.4192ZM81.6328 74.0338L82.5908 47.8682C89.2862 48.0912 95.984 48.2038 102.682 48.2053V54.6092C98.5248 54.6092 94.3679 54.5656 90.2125 54.48L90.1334 57.983C93.6828 58.0558 97.2338 58.0978 100.784 58.1099L100.762 64.326C97.1721 64.314 93.5831 64.2712 89.9942 64.1976L89.9111 67.8507C94.2207 67.9393 98.5319 67.9836 102.842 67.9829L102.843 74.3867C95.7712 74.3882 88.7008 74.2703 81.6328 74.0338ZM131.184 73.6374L130.863 67.1278C130.538 67.1803 130.047 67.2389 129.555 67.2606C127.916 67.3312 125.894 67.3335 124.026 64.3815C127.911 63.305 129.982 60.6789 129.784 56.6534C129.481 50.7045 124.899 47.8345 118.455 48.0019C114.215 48.1122 109.975 48.1776 105.734 48.1978L105.874 74.3799C108.587 74.3664 111.298 74.3356 114.01 74.2876L113.847 65.8883C114.611 65.8748 115.374 65.8598 116.137 65.8432C116.253 66.0925 116.367 66.341 116.483 66.5895C119.429 73.1953 123.607 74.2538 128.667 74.0473C129.58 74.0098 130.53 73.8559 131.184 73.6374ZM113.731 59.9372L113.62 54.2495C115.009 54.2248 116.398 54.1955 117.788 54.1617C120.27 54.1002 121.471 55.2278 121.528 56.8854C121.586 58.5791 120.452 59.7855 118.063 59.8456C116.618 59.8809 115.175 59.9116 113.731 59.9372ZM133.926 73.6217L132.515 47.4741C136.606 47.2729 140.696 47.0304 144.784 46.7459C151.299 46.2872 154.88 48.7519 155.289 52.9966C155.583 56.0731 153.508 58.2195 151.093 59.0505C154.437 59.6196 156.799 61.2247 157.118 64.5264C157.591 69.3597 154.202 72.3274 147.687 72.7944C143.103 73.1202 138.515 73.3957 133.925 73.6217H133.926ZM140.978 57.3809C142.281 57.2998 143.585 57.215 144.887 57.1256C146.823 56.9928 147.711 55.9425 147.587 54.4034C147.462 52.8637 146.428 51.9966 144.513 52.1287C143.221 52.2165 141.929 52.3014 140.638 52.381L140.978 57.3809ZM141.69 67.8312C143.003 67.7501 144.318 67.6645 145.631 67.5745C147.89 67.4198 148.962 66.392 148.828 64.7404C148.693 63.0873 147.478 62.2359 145.242 62.3891C143.94 62.4777 142.638 62.5625 141.336 62.6443L141.689 67.832L141.69 67.8312Z" stroke="#D73023" stroke-width="7.91045" mask="url(#path-4-outside-1_3533_2735)"/>
<path d="M94.5924 97.6885C94.6053 97.7335 94.5957 97.7786 94.5635 97.8237C94.5377 97.8623 94.4991 97.8816 94.4476 97.8816H89.3298C89.2525 97.8816 89.2042 97.8462 89.1849 97.7754L88.9821 97.0222C88.9628 96.9449 88.9145 96.9063 88.8373 96.9063H84.3181C84.2473 96.9063 84.2023 96.9449 84.1829 97.0222L83.9705 97.7754C83.9512 97.8462 83.9061 97.8816 83.8353 97.8816H78.7078C78.6563 97.8816 78.6177 97.8623 78.5919 97.8237C78.5662 97.785 78.5598 97.74 78.5726 97.6885L82.7731 84.1407C82.7989 84.0699 82.8472 84.0344 82.918 84.0344H90.2471C90.3115 84.0344 90.3565 84.0699 90.3823 84.1407L94.5924 97.6885ZM87.5433 92.9665C87.5884 92.9665 87.627 92.9504 87.6592 92.9182C87.6914 92.8796 87.7011 92.8346 87.6882 92.7831L86.7322 89.5482L86.7226 89.4903C86.7032 89.4194 86.655 89.384 86.5777 89.384C86.5069 89.384 86.4618 89.4194 86.4425 89.4903L86.4329 89.5482L85.4672 92.7831C85.4544 92.8346 85.464 92.8796 85.4962 92.9182C85.5284 92.9504 85.567 92.9665 85.6121 92.9665H87.5433ZM103.341 84.0344C104.352 84.0344 105.282 84.2855 106.132 84.7876C106.988 85.2898 107.657 85.9721 108.14 86.8348C108.629 87.6974 108.864 88.6341 108.845 89.6448C108.826 90.6361 108.555 91.5471 108.034 92.3775C107.513 93.2079 106.817 93.8613 105.948 94.3377C105.086 94.8141 104.155 95.0523 103.158 95.0523H100.888C100.85 95.0523 100.814 95.0684 100.782 95.1006C100.756 95.1263 100.744 95.1585 100.744 95.1971V97.7367C100.744 97.8333 100.695 97.8816 100.599 97.8816H95.4519C95.4132 97.8816 95.3778 97.8687 95.3456 97.843C95.3199 97.8108 95.307 97.7754 95.307 97.7367V84.1793C95.307 84.1407 95.3199 84.1085 95.3456 84.0827C95.3778 84.0505 95.4132 84.0344 95.4519 84.0344H103.341ZM102.153 90.8518C102.488 90.8518 102.781 90.7456 103.032 90.5331C103.29 90.3143 103.434 90.0439 103.467 89.722C103.505 89.3486 103.399 89.0268 103.148 88.7564C102.897 88.4796 102.588 88.3412 102.221 88.3412H100.888C100.85 88.3412 100.814 88.3573 100.782 88.3894C100.756 88.4152 100.744 88.4474 100.744 88.486V90.6973C100.744 90.8003 100.795 90.8518 100.898 90.8518H102.153ZM123.977 97.6498C124.002 97.7013 123.999 97.7528 123.967 97.8043C123.941 97.8558 123.899 97.8816 123.841 97.8816H118.26C118.202 97.8816 118.157 97.8558 118.125 97.8043L115.537 93.3045C115.498 93.2337 115.44 93.2079 115.363 93.2273C115.286 93.2466 115.247 93.2981 115.247 93.3818V97.7271C115.247 97.8301 115.196 97.8816 115.093 97.8816H109.965C109.862 97.8816 109.811 97.8301 109.811 97.7271V84.1986C109.811 84.1535 109.824 84.1149 109.849 84.0827C109.882 84.0505 109.92 84.0344 109.965 84.0344H115.093C115.138 84.0344 115.173 84.0505 115.199 84.0827C115.231 84.1149 115.247 84.1535 115.247 84.1986V88.3894C115.247 88.4667 115.286 88.5182 115.363 88.5439C115.44 88.5633 115.498 88.5407 115.537 88.4763L118.125 84.1117C118.157 84.0602 118.202 84.0344 118.26 84.0344H123.841C123.906 84.0344 123.951 84.0634 123.977 84.1214C124.009 84.1729 124.009 84.2244 123.977 84.2759L120.114 90.7745C120.082 90.826 120.082 90.8775 120.114 90.929L123.977 97.6498Z" fill="#ECECEC"/>
<path d="M130.918 42.99V32.1042C130.918 29.7269 130.918 21.9692 121.03 21.9692C113.119 21.9692 92.1565 21.9692 82.664 21.9692C76.3356 21.9692 71.9849 26.6989 71.9849 32.1042C71.9849 37.5096 71.9849 40.6126 71.9849 42.99" stroke="#ECECEC" stroke-width="4.74627" stroke-linecap="round"/>
<path d="M85.4326 21.9692C87.8058 22.2195 89.8637 23.4258 90.9699 27.9752C92.1565 32.855 96.1117 33.2304 101.254 33.2304" stroke="#ECECEC" stroke-width="4.74627"/>
<path d="M117.074 21.9692C114.701 22.2195 112.643 23.4258 111.537 27.9752C110.35 32.855 106.395 33.2304 101.253 33.2304" stroke="#ECECEC" stroke-width="4.74627"/>
<path d="M130.918 83.5299V94.4157C130.918 96.793 130.918 104.551 121.03 104.551C113.119 104.551 92.1565 104.551 82.664 104.551C76.3356 104.551 71.9849 99.821 71.9849 94.4157C71.9849 89.0103 71.9849 85.9073 71.9849 83.5299" stroke="#ECECEC" stroke-width="4.74627" stroke-linecap="round"/>
</g>
<defs>
<clipPath id="clip0_3533_2735">
<rect width="203.298" height="126.078" fill="white"/>
</clipPath>
</defs>
</svg>
