<svg width="75" height="34" viewBox="0 0 75 34" fill="none" xmlns="http://www.w3.org/2000/svg">
<g clip-path="url(#clip0_3533_2818)">
<path fill-rule="evenodd" clip-rule="evenodd" d="M38.58 25.2371C37.82 25.2371 37.127 25.1141 36.5 24.8671C35.8936 24.6341 35.347 24.2685 34.9 23.7971C34.46 23.3301 34.117 22.7541 33.87 22.0671C33.623 21.3801 33.5 20.5971 33.5 19.7171C33.5 18.5571 33.683 17.4901 34.05 16.5171C34.417 15.5441 34.92 14.7041 35.56 13.9971C36.1842 13.3021 36.9428 12.7408 37.79 12.3471C38.6389 11.9533 39.5642 11.7519 40.5 11.7571C41.26 11.7571 41.947 11.9401 42.56 12.3071C43.173 12.6741 43.673 13.1971 44.06 13.8771L41.9 15.5571C41.433 14.8641 40.913 14.5171 40.34 14.5171C39.873 14.5171 39.423 14.6471 38.99 14.9071C38.557 15.1671 38.177 15.5201 37.85 15.9671C37.5049 16.451 37.2414 16.9881 37.07 17.5571C36.8735 18.1918 36.7757 18.8528 36.78 19.5171C36.78 20.4641 36.973 21.1941 37.36 21.7071C37.747 22.2201 38.38 22.4771 39.26 22.4771C39.607 22.4771 39.95 22.3901 40.29 22.2171C40.6391 22.0376 40.9649 21.816 41.26 21.5571L42.58 23.5971C42.3645 23.7939 42.1374 23.9775 41.9 24.1471C41.633 24.3401 41.33 24.5171 40.99 24.6771C40.65 24.8371 40.277 24.9701 39.87 25.0771C39.463 25.1841 39.033 25.2371 38.58 25.2371ZM47.22 25.2371C46.34 25.2371 45.653 24.9201 45.16 24.2871C44.666 23.6541 44.42 22.7441 44.42 21.5571C44.42 20.6101 44.566 19.7241 44.86 18.8971C45.1285 18.1157 45.5275 17.3853 46.04 16.7371C46.5061 16.147 47.0837 15.6543 47.74 15.2871C48.3501 14.9417 49.0389 14.7592 49.74 14.7571C50.166 14.7571 50.573 14.8671 50.96 15.0871C51.346 15.3071 51.633 15.6101 51.82 15.9971H51.86L52.3 14.9971H54.86L52.86 24.9971H50.26V23.7571H50.22C49.78 24.2241 49.29 24.5871 48.75 24.8471C48.21 25.1071 47.7 25.2371 47.22 25.2371ZM48.66 22.6371C48.926 22.6371 49.22 22.5541 49.54 22.3871C49.86 22.2201 50.153 21.8641 50.42 21.3171L51.06 18.1171C50.94 17.8501 50.776 17.6571 50.57 17.5371C50.3928 17.4259 50.1891 17.3638 49.98 17.3571C49.686 17.3571 49.406 17.4501 49.14 17.6371C48.8528 17.8462 48.6112 18.1116 48.43 18.4171C48.2063 18.7909 48.0379 19.1951 47.93 19.6171C47.7988 20.1198 47.7349 20.6377 47.74 21.1571C47.74 21.6771 47.823 22.0541 47.99 22.2871C48.156 22.5201 48.38 22.6371 48.66 22.6371ZM58.459 25.2371C58.166 25.2371 57.852 25.1971 57.519 25.1171C56.8102 24.945 56.1501 24.6132 55.589 24.1471C55.2881 23.8995 55.0283 23.6059 54.819 23.2771L56.659 21.7571C57.019 22.1841 57.366 22.4841 57.699 22.6571C58.032 22.8301 58.352 22.9171 58.659 22.9171C58.966 22.9171 59.229 22.8541 59.449 22.7271C59.669 22.6001 59.779 22.4371 59.779 22.2371C59.7822 22.1129 59.7395 21.9919 59.659 21.8971C59.579 21.8041 59.469 21.7071 59.329 21.6071C59.189 21.5071 59.012 21.4041 58.799 21.2971C58.5619 21.1776 58.3284 21.0509 58.099 20.9171C57.8493 20.7773 57.6118 20.6167 57.389 20.4371C57.1579 20.2527 56.9497 20.0412 56.769 19.8071C56.5886 19.573 56.4437 19.3136 56.339 19.0371C56.2298 18.7429 56.1756 18.431 56.179 18.1171C56.179 17.6371 56.286 17.1941 56.499 16.7871C56.712 16.3801 56.999 16.0271 57.359 15.7271C57.7396 15.4156 58.1732 15.1751 58.639 15.0171C59.1471 14.8414 59.6814 14.7534 60.219 14.7571C60.939 14.7571 61.579 14.9141 62.139 15.2271C62.699 15.5401 63.192 15.9171 63.619 16.3571L61.899 17.9971C61.659 17.7571 61.399 17.5501 61.119 17.3771C60.8497 17.2069 60.5376 17.1167 60.219 17.1171C59.899 17.1171 59.646 17.1871 59.459 17.3271C59.272 17.4671 59.179 17.6371 59.179 17.8371C59.179 17.9841 59.226 18.1071 59.319 18.2071C59.412 18.3071 59.536 18.4041 59.689 18.4971C59.842 18.5901 60.016 18.6841 60.209 18.7771C60.402 18.8701 60.592 18.9701 60.779 19.0771C61.019 19.2101 61.259 19.3601 61.499 19.5271C61.9901 19.8639 62.3723 20.3365 62.599 20.8871C62.719 21.1741 62.779 21.5041 62.779 21.8771C62.779 22.3841 62.672 22.8401 62.459 23.2471C62.2409 23.6596 61.9375 24.0209 61.569 24.3071C61.189 24.6071 60.732 24.8371 60.199 24.9971C59.666 25.1571 59.086 25.2371 58.459 25.2371ZM63.819 24.9971L66.619 11.0771H69.819L69.139 14.3171L68.659 16.0771H68.739C69.139 15.7171 69.595 15.4071 70.109 15.1471C70.622 14.8871 71.179 14.7571 71.779 14.7571C72.605 14.7571 73.205 14.9741 73.579 15.4071C73.952 15.8401 74.139 16.4901 74.139 17.3571C74.139 17.5841 74.129 17.8201 74.109 18.0671C74.089 18.3141 74.045 18.5571 73.979 18.7971L72.739 24.9971H69.539L70.699 19.1971C70.739 19.0101 70.775 18.8471 70.809 18.7071C70.842 18.5671 70.859 18.4371 70.859 18.3171C70.859 18.0371 70.785 17.8271 70.639 17.6871C70.492 17.5471 70.285 17.4771 70.019 17.4771C69.739 17.4771 69.465 17.5671 69.199 17.7471C68.932 17.9271 68.619 18.2101 68.259 18.5971L67.019 24.9971H63.819Z" fill="white"/>
<path d="M19.85 15.0774C19.47 15.0774 19.175 15.3494 19.175 15.7034V25.8474H14.392V22.3574C14.392 22.0304 14.098 21.7444 13.742 21.7444H10.282C9.902 21.7444 9.596 22.0304 9.596 22.3574V25.8474H4.825V15.9854C4.825 15.6554 4.53 15.3824 4.15 15.3824C3.794 15.3824 3.5 15.6554 3.5 15.9854V26.4724C3.5 26.8024 3.794 27.0764 4.15 27.0764H10.283C10.639 27.0764 10.933 26.8024 10.933 26.4724V22.9824H13.067V26.4724C13.067 26.8024 13.361 27.0764 13.742 27.0764H19.85C20.206 27.0764 20.5 26.8024 20.5 26.4724V15.7024C20.4988 15.6184 20.4811 15.5356 20.4477 15.4586C20.4143 15.3816 20.366 15.312 20.3056 15.2538C20.2451 15.1956 20.1737 15.1499 20.0955 15.1195C20.0173 15.089 19.9339 15.0744 19.85 15.0764V15.0774Z" fill="white"/>
<path d="M23.312 17.0771L18.082 12.3501L16.768 11.1681L12.453 7.26215C12.3326 7.14695 12.1735 7.08095 12.007 7.07715C11.8326 7.07729 11.6647 7.14338 11.537 7.26215L0.699961 17.0121C0.439961 17.2461 0.422961 17.6221 0.699961 17.8361C0.940961 18.0861 1.35596 18.0701 1.61596 17.8361L12.006 8.50915L22.371 17.9241C22.479 18.0211 22.636 18.0771 22.841 18.0771C23.022 18.0771 23.179 18.0211 23.311 17.9241C23.37 17.8705 23.4172 17.8052 23.4495 17.7322C23.4818 17.6593 23.4985 17.5804 23.4985 17.5006C23.4985 17.4209 23.4818 17.342 23.4495 17.2691C23.4172 17.1961 23.371 17.1308 23.312 17.0771Z" fill="white"/>
</g>
<defs>
<clipPath id="clip0_3533_2818">
<rect width="74" height="33" fill="white" transform="translate(0.5 0.0771484)"/>
</clipPath>
</defs>
</svg>
