<svg width="29" height="31" viewBox="0 0 29 31" fill="none" xmlns="http://www.w3.org/2000/svg">
<g clip-path="url(#clip0_3533_2849)">
<path d="M14.3999 29.0771C6.6679 29.0771 0.399902 22.8091 0.399902 15.0771C0.399902 7.34515 6.6679 1.07715 14.3999 1.07715C22.1319 1.07715 28.3999 7.34515 28.3999 15.0771C28.3999 22.8091 22.1319 29.0771 14.3999 29.0771ZM14.3999 27.1461C21.0659 27.1461 26.4689 21.7431 26.4689 15.0771C26.4689 8.41115 21.0659 3.00815 14.3999 3.00815C7.7339 3.00815 2.3309 8.41115 2.3309 15.0771C2.3309 21.7431 7.7339 27.1461 14.3999 27.1461Z" fill="white"/>
<path fill-rule="evenodd" clip-rule="evenodd" d="M4.50979 19.4226L4.90979 17.4446H6.88779L7.96979 12.0996H6.17779L6.48679 10.5556C6.98098 10.4832 7.46716 10.364 7.93879 10.1996C8.34745 10.0471 8.74058 9.85593 9.11279 9.62856H10.9358L9.35979 17.4446H11.0898L10.6888 19.4226H4.50979ZM14.8128 19.6076C14.4628 19.6076 14.1048 19.5586 13.7398 19.4606C13.3837 19.3674 13.0464 19.2135 12.7428 19.0056C12.4423 18.7977 12.1917 18.5259 12.0088 18.2096C11.8188 17.8856 11.7238 17.4966 11.7238 17.0436C11.7187 16.4406 11.9266 15.8552 12.3108 15.3906C12.4963 15.1637 12.7147 14.9658 12.9588 14.8036C13.2068 14.6386 13.4738 14.4996 13.7628 14.3866V14.3246C13.2068 13.7376 12.9288 13.0676 12.9288 12.3166C12.9288 11.8736 13.0158 11.4746 13.1908 11.1186C13.3658 10.7636 13.6058 10.4626 13.9098 10.2156C14.2225 9.96331 14.5782 9.76954 14.9598 9.64356C15.6912 9.40037 16.4777 9.37605 17.2228 9.57356C17.5528 9.66156 17.8488 9.79856 18.1108 9.98356C18.3738 10.1686 18.5848 10.4086 18.7448 10.7016C18.9048 10.9956 18.9848 11.3486 18.9848 11.7596C18.9848 12.3476 18.8318 12.8596 18.5288 13.2976C18.2248 13.7346 17.8098 14.0876 17.2848 14.3556V14.4176C17.6548 14.6646 17.9448 14.9776 18.1498 15.3596C18.3558 15.7406 18.4588 16.1786 18.4588 16.6726C18.4588 17.1256 18.3608 17.5326 18.1658 17.8926C17.9698 18.2526 17.7048 18.5596 17.3698 18.8126C17.0177 19.0737 16.6233 19.2722 16.2038 19.3996C15.7538 19.5395 15.284 19.6096 14.8128 19.6076ZM16.2028 13.6756C16.3946 13.4821 16.5564 13.261 16.6828 13.0196C16.8158 12.7666 16.8828 12.4706 16.8828 12.1306C16.8828 11.8626 16.8238 11.6366 16.7058 11.4506C16.5868 11.2656 16.3678 11.1726 16.0488 11.1726C15.9231 11.1697 15.7982 11.1921 15.6814 11.2385C15.5646 11.2849 15.4583 11.3543 15.3688 11.4426C15.1838 11.6236 15.0908 11.8836 15.0908 12.2226C15.0908 12.5426 15.1838 12.8126 15.3688 13.0346C15.5548 13.2556 15.8318 13.4696 16.2028 13.6756ZM14.9998 17.9086C15.3188 17.9086 15.5998 17.8086 15.8418 17.6076C16.0838 17.4066 16.2048 17.0946 16.2048 16.6726C16.2048 16.3426 16.0778 16.0646 15.8258 15.8386C15.5738 15.6116 15.2158 15.3646 14.7518 15.0966C14.5158 15.2826 14.3168 15.5166 14.1578 15.7996C13.9978 16.0826 13.9178 16.4046 13.9178 16.7656C13.9178 17.0636 14.0058 17.3296 14.1808 17.5606C14.3558 17.7926 14.6288 17.9086 14.9998 17.9086ZM21.2008 17.3906V15.2826H19.3008V13.9846H21.2238V11.8756H22.5678V13.9846H24.4918V15.2826H22.5448V17.3906H21.2008Z" fill="white"/>
</g>
<defs>
<clipPath id="clip0_3533_2849">
<rect width="28" height="30" fill="white" transform="translate(0.399902 0.0771484)"/>
</clipPath>
</defs>
</svg>
