<svg width="49" height="34" viewBox="0 0 49 34" fill="none" xmlns="http://www.w3.org/2000/svg">
<g clip-path="url(#clip0_3533_2824)">
<mask id="mask0_3533_2824" style="mask-type:luminance" maskUnits="userSpaceOnUse" x="0" y="9" width="49" height="17">
<path d="M25.324 14.1921C25.297 16.4211 27.249 17.6651 28.719 18.4041C30.229 19.1631 30.737 19.6491 30.731 20.3281C30.719 21.3661 29.526 21.8251 28.409 21.8431C26.46 21.8731 25.327 21.2991 24.426 20.8651L23.725 24.2551C24.628 24.6851 26.302 25.0611 28.037 25.0771C32.11 25.0771 34.775 23.0021 34.79 19.7831C34.806 15.6991 29.317 15.4731 29.354 13.6481C29.367 13.0941 29.879 12.5031 31 12.3531C31.555 12.2771 33.088 12.2191 34.824 13.0451L35.506 9.76515C34.572 9.41215 33.372 9.07715 31.876 9.07715C28.043 9.07715 25.346 11.1811 25.324 14.1921ZM42.057 9.36015C41.313 9.36015 40.687 9.80815 40.407 10.4951L34.588 24.8361H38.658L39.468 22.5261H44.442L44.912 24.8361H48.5L45.37 9.36015H42.057ZM42.627 13.5401L43.801 19.3521H40.584L42.626 13.5401H42.627ZM20.388 9.36015L17.18 24.8361H21.058L24.267 9.36015H20.389H20.388ZM14.65 9.36015L10.613 19.8931L8.981 10.9371C8.789 9.93715 8.033 9.36015 7.192 9.36015H0.592L0.5 9.80915C1.855 10.1121 3.394 10.6021 4.327 11.1261C4.897 11.4461 5.061 11.7261 5.247 12.4861L8.341 24.8361H12.441L18.723 9.36015H14.65Z" fill="white"/>
</mask>
<g mask="url(#mask0_3533_2824)">
<path fill-rule="evenodd" clip-rule="evenodd" d="M25.324 14.1921C25.297 16.4211 27.249 17.6651 28.719 18.4041C30.229 19.1631 30.737 19.6491 30.731 20.3281C30.719 21.3661 29.526 21.8251 28.409 21.8431C26.46 21.8731 25.327 21.2991 24.426 20.8651L23.725 24.2551C24.628 24.6851 26.302 25.0611 28.037 25.0771C32.11 25.0771 34.775 23.0021 34.79 19.7831C34.806 15.6991 29.317 15.4731 29.354 13.6481C29.367 13.0941 29.879 12.5031 31 12.3531C31.555 12.2771 33.088 12.2191 34.824 13.0451L35.506 9.76515C34.572 9.41215 33.372 9.07715 31.876 9.07715C28.043 9.07715 25.346 11.1811 25.324 14.1921ZM42.057 9.36015C41.313 9.36015 40.687 9.80815 40.407 10.4951L34.588 24.8361H38.658L39.468 22.5261H44.442L44.912 24.8361H48.5L45.37 9.36015H42.057ZM42.627 13.5401L43.801 19.3521H40.584L42.627 13.5401ZM20.388 9.36015L17.18 24.8361H21.058L24.267 9.36015H20.388ZM14.65 9.36015L10.613 19.8931L8.981 10.9371C8.789 9.93715 8.033 9.36015 7.192 9.36015H0.592L0.5 9.80915C1.855 10.1121 3.394 10.6021 4.327 11.1261C4.897 11.4461 5.061 11.7261 5.247 12.4861L8.341 24.8361H12.441L18.723 9.36015H14.65Z" fill="white"/>
</g>
</g>
<defs>
<clipPath id="clip0_3533_2824">
<rect width="48" height="33" fill="white" transform="translate(0.5 0.0771484)"/>
</clipPath>
</defs>
</svg>
