<svg width="51" height="34" viewBox="0 0 51 34" fill="none" xmlns="http://www.w3.org/2000/svg">
<g clip-path="url(#clip0_3533_2836)">
<path fill-rule="evenodd" clip-rule="evenodd" d="M36.415 12.1621C36.6839 12.1629 36.9503 12.1107 37.199 12.0085C37.4478 11.9063 37.6739 11.7561 37.8646 11.5665C38.0552 11.3769 38.2066 11.1515 38.3102 10.9034C38.4137 10.6552 38.4673 10.389 38.468 10.1201C38.468 8.99215 37.548 8.07715 36.415 8.07715C35.283 8.07715 34.365 8.99215 34.365 10.1201C34.365 11.2481 35.283 12.1621 36.415 12.1621ZM20.697 13.2641C20.605 13.4951 19.939 15.3691 18.326 17.3121V9.00715L14.031 9.85215V24.9061H18.326V20.2521C19.57 22.1091 20.185 24.9061 20.185 24.9061H25.329C24.821 22.8001 22.595 18.9161 22.595 18.9161C24.592 16.3961 25.469 13.7091 25.609 13.2641H20.697ZM31.988 13.1071C28.142 13.2291 26.189 14.9471 26.189 18.3631V24.9061H30.386V19.5711C30.386 17.5251 30.655 16.6481 33.093 16.5651V13.1661C32.683 13.0801 31.988 13.1071 31.988 13.1071ZM6.828 14.9211C6.302 14.8871 5.084 14.8091 5.084 13.7181C5.084 12.4011 6.838 12.4011 7.494 12.4011C8.652 12.4011 10.149 12.7411 11.219 13.0591C11.219 13.0591 11.816 13.2681 12.323 13.4831L12.371 13.4951V9.88815L12.306 9.86915C11.043 9.42915 9.576 9.00715 6.854 9.00715C2.162 9.00715 0.5 11.7271 0.5 14.0571C0.5 15.4011 1.078 18.5631 6.452 18.9281C6.907 18.9561 8.117 19.0251 8.117 20.1531C8.117 21.0841 7.127 21.6331 5.462 21.6331C3.638 21.6331 1.868 21.1701 0.794 20.7311V24.4461C2.403 24.8661 4.216 25.0761 6.342 25.0761C10.93 25.0761 12.985 22.5021 12.985 19.9501C12.985 17.0571 10.685 15.1791 6.828 14.9211ZM34.335 24.9061H38.498V13.2761H34.335V24.9061ZM46.336 9.74715V24.9051H50.5V9.00515L46.336 9.74715ZM40.261 9.74715L44.421 9.00615V24.9051H40.261V9.74715Z" fill="white"/>
</g>
<defs>
<clipPath id="clip0_3533_2836">
<rect width="50" height="33" fill="white" transform="translate(0.5 0.0771484)"/>
</clipPath>
</defs>
</svg>
