<svg width="130" height="34" viewBox="0 0 130 34" fill="none" xmlns="http://www.w3.org/2000/svg">
<g clip-path="url(#clip0_3533_2840)">
<path fill-rule="evenodd" clip-rule="evenodd" d="M17.5 15.1601C17.514 14.1551 17.728 13.3921 18.142 12.8701C18.359 12.6501 18.63 12.4671 18.961 12.3161C19.304 12.1551 19.636 12.0771 19.959 12.0771H23.869C25.595 12.0931 26.472 13.0811 26.5 15.0451V21.0901C26.4967 21.4283 26.4263 21.7623 26.2929 22.073C26.1596 22.3837 25.9658 22.6649 25.723 22.9001C25.223 23.4311 24.628 23.7021 23.935 23.7191H20.236V28.0771H17.5V15.1601ZM23.762 15.7301C23.748 15.2741 23.542 15.0381 23.144 15.0221H21.013C20.509 15.0551 20.248 15.3451 20.236 15.8901V19.9061C20.248 20.4691 20.536 20.7561 21.096 20.7731H23.049C23.1461 20.7749 23.2424 20.7541 23.3301 20.7125C23.4179 20.6708 23.4949 20.6095 23.555 20.5331C23.6228 20.4756 23.6767 20.4034 23.7125 20.3219C23.7484 20.2405 23.7653 20.152 23.762 20.0631V15.7301ZM34.787 15.4621C34.802 15.0451 34.557 14.8471 34.051 14.8601H28.541V12.0771H34.745C36.552 12.1071 37.469 12.9711 37.5 14.6771V20.4991C37.484 21.2361 37.257 21.8421 36.815 22.3261C36.353 22.8261 35.757 23.0771 35.027 23.0771H31.278C29.453 23.0621 28.528 22.2371 28.5 20.5971V18.3491C28.514 16.6351 29.398 15.7641 31.149 15.7341H34.787V15.4621ZM31.237 19.7421C31.237 19.9021 31.31 20.0271 31.454 20.1221C31.5922 20.2397 31.7697 20.3008 31.951 20.2931H34.052C34.527 20.2931 34.772 20.1111 34.787 19.7431V18.9651C34.787 18.5411 34.537 18.3271 34.032 18.3271H31.95C31.676 18.3271 31.487 18.3721 31.381 18.4571C31.284 18.5571 31.235 18.7571 31.235 19.0511V19.7421H31.237ZM45.99 25.1311C46.2001 25.1208 46.3993 25.0348 46.551 24.8891C46.6196 24.8311 46.6749 24.759 46.7132 24.6778C46.7515 24.5965 46.7719 24.508 46.773 24.4181V23.7181H43.25C42.792 23.7181 42.424 23.6581 42.15 23.5361C41.86 23.4261 41.572 23.2191 41.282 22.9261C41.0231 22.6428 40.8214 22.312 40.688 21.9521C40.564 21.6421 40.5 21.2471 40.5 20.7731V12.0771H43.25V19.8401C43.25 20.4621 43.494 20.7731 43.988 20.7731H45.93C46.16 20.7731 46.361 20.6931 46.53 20.5331C46.6053 20.4757 46.6663 20.4017 46.7084 20.3169C46.7506 20.2322 46.7727 20.1388 46.773 20.0441V12.0771H49.5V24.9051C49.484 25.8551 49.25 26.6151 48.8 27.1911C48.343 27.7681 47.718 28.0631 46.92 28.0771H40.5V25.1311H45.99ZM51.5 20.2941H56.75C57.23 20.2781 57.48 20.1021 57.495 19.7621V19.5121C57.4916 19.4279 57.4676 19.3459 57.425 19.2731C57.307 19.0631 57.163 18.9581 56.992 18.9581H54.389C53.617 18.9451 52.959 18.7001 52.404 18.2281C51.844 17.7911 51.556 17.2551 51.54 16.6251V14.5501C51.57 12.9301 52.527 12.1071 54.412 12.0771H60.5V14.8601H55.342C54.736 14.8601 54.431 15.0311 54.431 15.3711V15.6411C54.431 15.9941 54.743 16.1711 55.364 16.1711H57.959C58.65 16.1861 59.239 16.4291 59.731 16.9041C60.227 17.3821 60.485 17.9501 60.5 18.6111V20.6411C60.485 21.2111 60.198 21.7811 59.646 22.3481C59.376 22.6271 59.101 22.8181 58.826 22.9271C58.54 23.0271 58.153 23.0771 57.659 23.0771H51.5V20.2941ZM68.79 15.4621C68.802 15.0451 68.557 14.8471 68.05 14.8601H62.54V12.0771H68.748C70.554 12.1071 71.472 12.9711 71.5 14.6771V20.4991C71.485 21.2361 71.256 21.8421 70.816 22.3261C70.357 22.8261 69.761 23.0771 69.03 23.0771H65.276C63.452 23.0621 62.526 22.2371 62.5 20.5971V18.3491C62.512 16.6351 63.396 15.7641 65.149 15.7341H68.789L68.79 15.4621ZM65.234 19.7421C65.234 19.9021 65.309 20.0271 65.456 20.1221C65.5929 20.2392 65.769 20.3003 65.949 20.2931H68.055C68.53 20.2931 68.775 20.1111 68.79 19.7431V18.9651C68.79 18.5411 68.536 18.3271 68.033 18.3271H65.949C65.676 18.3271 65.488 18.3721 65.383 18.4571C65.285 18.5571 65.234 18.7571 65.234 19.0511V19.7421ZM73.5 9.74315C73.518 8.94715 73.817 8.30815 74.403 7.82815C74.972 7.34115 75.718 7.09115 76.642 7.07715H78.5V9.92715H77.374C76.756 9.94115 76.441 10.2311 76.427 10.7921V11.4161H78.5V14.3691H76.427V23.0771H73.5V9.74315ZM82.291 19.3441V19.5171C82.291 19.7401 82.351 19.9171 82.47 20.0451C82.556 20.2091 82.673 20.2931 82.827 20.2931H88.482V23.0771H82.47C81.92 23.0771 81.494 23.0271 81.191 22.9251C80.8605 22.8185 80.558 22.6391 80.306 22.4001C80.003 22.1051 79.797 21.8061 79.693 21.4971C79.58 21.1751 79.524 20.7471 79.524 20.2161L79.5 14.6461C79.53 12.9631 80.424 12.1061 82.18 12.0771H85.89C87.604 12.1071 88.472 12.9931 88.5 14.7411V16.9411L82.291 19.3441ZM85.698 15.4101V15.3451C85.6993 15.2762 85.684 15.208 85.6533 15.1462C85.6227 15.0844 85.5777 15.0309 85.522 14.9901C85.3811 14.8992 85.2156 14.8538 85.048 14.8601H83.132C82.886 14.8601 82.688 14.9271 82.535 15.0671C82.344 15.1951 82.247 15.3641 82.247 15.5721V16.6891L85.698 15.4101ZM95.647 23.0771C95.242 23.0771 94.873 23.0391 94.537 22.9701C94.187 22.9131 93.837 22.7501 93.48 22.4731C93.113 22.1511 92.86 21.7901 92.72 21.3921C92.568 20.9638 92.4945 20.5116 92.503 20.0571V14.8961C92.488 14.4761 92.53 14.1061 92.628 13.7861C92.717 13.4661 92.906 13.1531 93.191 12.8461C93.517 12.5241 93.849 12.3101 94.199 12.2051C94.5726 12.1158 94.9558 12.0728 95.34 12.0771H99.435V12.7241H95.435C94.729 12.7241 94.174 12.8701 93.768 13.1621C93.353 13.4821 93.141 14.0321 93.141 14.8081V19.9711C93.141 20.3351 93.196 20.6881 93.306 21.0291C93.418 21.3641 93.605 21.6581 93.873 21.9151C94.164 22.1371 94.453 22.2761 94.737 22.3331C95.031 22.3981 95.347 22.4301 95.682 22.4301H99.5V23.0771H95.647ZM110.5 20.1001C110.5 20.5151 110.467 20.8801 110.412 21.2001C110.322 21.5501 110.139 21.8861 109.862 22.2061C109.282 22.8011 108.565 23.0911 107.709 23.0761H104.415C103.559 23.0761 102.865 22.8261 102.327 22.3301C101.778 21.8401 101.5 21.1571 101.5 20.2811V18.6181C101.528 16.7411 102.486 15.7801 104.373 15.7361H109.861V15.0081C109.861 14.4081 109.684 13.8831 109.329 13.4311C109.131 13.1586 108.855 12.9527 108.537 12.8411C108.2 12.7592 107.854 12.7199 107.507 12.7241H101.52V12.0771H107.196C107.669 12.074 108.142 12.1095 108.609 12.1831C108.828 12.2251 109.026 12.3091 109.209 12.4291C109.404 12.5431 109.585 12.7091 109.753 12.9291C110.262 13.5701 110.511 14.3091 110.5 15.1421V20.1001ZM109.841 16.3821H104.301C103.637 16.3961 103.117 16.5961 102.743 16.9821C102.356 17.3741 102.163 17.9121 102.163 18.5941V20.2411C102.163 20.5601 102.198 20.8511 102.268 21.1151C102.338 21.3911 102.512 21.6391 102.787 21.8511C103.232 22.2249 103.794 22.4296 104.375 22.4291H107.732C109.135 22.4151 109.842 21.6931 109.842 20.2611L109.841 16.3821ZM116.608 12.7241C114.976 12.7521 114.171 13.5701 114.202 15.1811V23.0771H113.501V15.1831C113.468 13.1111 114.541 12.0771 116.721 12.0771H117.5V12.7241H116.608ZM129.5 19.9231C129.443 22.0681 128.328 23.1201 126.157 23.0761H123.742C123.282 23.0802 122.823 23.0356 122.372 22.9431C121.957 22.8341 121.56 22.5761 121.177 22.1741C120.889 21.8141 120.704 21.4481 120.63 21.0741C120.527 20.6683 120.484 20.2495 120.503 19.8311V14.9941C120.531 12.8161 121.608 11.7341 123.737 11.7491H128.85V8.07715H129.5V19.9231ZM128.85 12.4151H123.698C123.326 12.4151 122.994 12.4571 122.694 12.5371C122.38 12.6101 122.077 12.8041 121.793 13.1191C121.521 13.4071 121.35 13.6921 121.279 13.9771C121.183 14.2651 121.139 14.6091 121.155 15.0111V20.1941C121.155 21.0561 121.4 21.6421 121.897 21.9571C122.142 22.1031 122.411 22.2131 122.713 22.2871C123.013 22.3681 123.349 22.4081 123.718 22.4081H125.971C126.812 22.4081 127.501 22.2111 128.03 21.8131C128.561 21.4401 128.831 20.7961 128.85 19.8771V12.4151ZM2.367 11.5411C2.57083 11.4503 2.78322 11.3799 3.001 11.3311C3.19804 10.4178 3.70275 9.59982 4.43069 9.01404C5.15863 8.42827 6.06565 8.11024 7 8.11315C7.93471 8.11048 8.84199 8.42883 9.5701 9.01495C10.2982 9.60108 10.803 10.4194 11 11.3331C11.604 11.4481 12.104 11.6901 12.494 12.0511C12.5098 11.7129 12.4961 11.374 12.453 11.0381C12.203 8.25715 9.855 6.07715 6.99 6.07715C4.042 6.07715 1.642 8.39615 1.517 11.2941C1.5 11.5441 1.494 11.8041 1.503 12.0771C1.751 11.8701 2.034 11.6841 2.367 11.5411ZM9.818 12.0771H3.007C2.679 12.0771 2.339 12.1511 1.989 12.3031C1.68206 12.427 1.39938 12.604 1.154 12.8261C0.73 13.3191 0.515 14.0411 0.5 14.9901V20.1631C0.515 21.1131 0.731 21.8351 1.154 22.3261C1.375 22.5361 1.652 22.7091 1.989 22.8531C2.339 23.0021 2.679 23.0771 3.007 23.0771H9.817C11.577 23.0621 12.472 22.1241 12.5 20.2711V14.8811C12.472 13.0261 11.577 12.0911 9.818 12.0771Z" fill="white"/>
</g>
<defs>
<clipPath id="clip0_3533_2840">
<rect width="129" height="33" fill="white" transform="translate(0.5 0.0771484)"/>
</clipPath>
</defs>
</svg>
