<svg width="44" height="34" viewBox="0 0 44 34" fill="none" xmlns="http://www.w3.org/2000/svg">
<g clip-path="url(#clip0_3533_2830)">
<path d="M8.773 32.8971V30.7391C8.78568 30.5585 8.76067 30.3773 8.69956 30.2068C8.63845 30.0364 8.54256 29.8805 8.418 29.7491C8.168 29.4881 7.82 29.3501 7.465 29.3721C7.23294 29.3576 7.00133 29.4069 6.79527 29.5146C6.58921 29.6223 6.41655 29.7843 6.296 29.9831C6.18631 29.7905 6.02581 29.6316 5.83202 29.5238C5.63822 29.4161 5.41857 29.3636 5.197 29.3721C4.808 29.3521 4.437 29.5461 4.223 29.8821V29.4581H3.5V32.8981H4.23V31.0051C4.21442 30.888 4.22422 30.7689 4.25873 30.6559C4.29324 30.5429 4.35165 30.4386 4.43 30.3501C4.50623 30.2635 4.60104 30.1952 4.70736 30.1504C4.81368 30.1055 4.92876 30.0853 5.044 30.0911C5.524 30.0911 5.768 30.4151 5.768 30.9981V32.9121H6.498V31.0051C6.48277 30.8882 6.49273 30.7693 6.52723 30.6565C6.56172 30.5437 6.61995 30.4396 6.698 30.3511C6.77432 30.2646 6.86912 30.1962 6.9754 30.1512C7.08168 30.1062 7.19671 30.0857 7.312 30.0911C7.806 30.0911 8.042 30.4151 8.042 30.9981V32.9121L8.773 32.8971ZM19.579 29.4581H18.389V28.4151H17.659V29.4581H16.999V30.1421H17.673V31.7241C17.673 32.5231 17.973 32.9981 18.828 32.9981C19.148 32.9991 19.461 32.9071 19.732 32.7321L19.523 32.0921C19.329 32.2121 19.109 32.2781 18.883 32.2861C18.536 32.2861 18.403 32.0561 18.403 31.7101V30.1421H19.586L19.579 29.4581ZM25.749 29.3721C25.5709 29.368 25.395 29.4128 25.2405 29.5016C25.0861 29.5905 24.9589 29.72 24.873 29.8761V29.4581H24.156V32.8981H24.88V30.9691C24.88 30.4011 25.116 30.0841 25.575 30.0841C25.73 30.0821 25.884 30.1111 26.027 30.1711L26.25 29.4511C26.0851 29.3903 25.9108 29.3588 25.735 29.3581L25.749 29.3721ZM16.421 29.7321C16.0144 29.4811 15.5426 29.3558 15.065 29.3721C14.223 29.3721 13.673 29.7891 13.673 30.4721C13.673 31.0341 14.077 31.3791 14.821 31.4871L15.169 31.5371C15.565 31.5951 15.753 31.7031 15.753 31.8971C15.753 32.1631 15.489 32.3141 14.995 32.3141C14.5958 32.3254 14.2051 32.1982 13.889 31.9541L13.541 32.5371C13.963 32.8421 14.467 32.9981 14.981 32.9831C15.941 32.9831 16.497 32.5161 16.497 31.8611C16.497 31.2061 16.059 30.9411 15.336 30.8321L14.988 30.7821C14.675 30.7391 14.425 30.6741 14.425 30.4441C14.425 30.2141 14.661 30.0411 15.058 30.0411C15.424 30.0451 15.783 30.1471 16.101 30.3361L16.421 29.7321ZM35.797 29.3721C35.6189 29.368 35.443 29.4128 35.2885 29.5016C35.1341 29.5905 35.0069 29.72 34.921 29.8761V29.4581H34.204V32.8981H34.928V30.9691C34.928 30.4011 35.164 30.0841 35.623 30.0841C35.778 30.0821 35.932 30.1111 36.075 30.1711L36.298 29.4511C36.1331 29.3903 35.9588 29.3588 35.783 29.3581L35.797 29.3721ZM26.476 31.1711C26.4669 31.4113 26.5069 31.6507 26.5933 31.8749C26.6798 32.0991 26.811 32.3033 26.979 32.4751C27.316 32.8171 27.778 32.9971 28.249 32.9691C28.684 32.9921 29.111 32.8461 29.446 32.5591L29.098 31.9551C28.8503 32.1519 28.5443 32.2609 28.228 32.2651C27.674 32.2181 27.248 31.7391 27.248 31.1631C27.248 30.5881 27.674 30.1091 28.228 30.0631C28.543 30.0661 28.848 30.1751 29.098 30.3721L29.446 29.7681C29.1148 29.483 28.6865 29.3362 28.25 29.3581C28.0152 29.3451 27.7803 29.3824 27.561 29.4676C27.3418 29.5528 27.1434 29.6839 26.979 29.8521C26.811 30.024 26.6798 30.2282 26.5933 30.4524C26.5069 30.6766 26.4669 30.916 26.476 31.1561V31.1711ZM33.251 31.1711V29.4571H32.528V29.8751C32.4078 29.7129 32.25 29.5822 32.0681 29.4945C31.8863 29.4067 31.6858 29.3643 31.484 29.3711C30.524 29.3711 29.745 30.1761 29.745 31.1701C29.745 32.1631 30.524 32.9681 31.485 32.9681C31.89 32.9841 32.279 32.7961 32.528 32.4641V32.8821H33.251V31.1711ZM30.559 31.1711C30.591 30.6061 31.054 30.1711 31.6 30.1931C32.147 30.2141 32.576 30.6831 32.568 31.2481C32.558 31.8141 32.115 32.2681 31.568 32.2711C31.4294 32.2725 31.292 32.2446 31.165 32.1891C31.038 32.1336 30.9242 32.0518 30.831 31.9491C30.7357 31.8444 30.6625 31.7215 30.6157 31.5879C30.569 31.4542 30.5497 31.3125 30.559 31.1711ZM21.829 29.3721C20.869 29.3861 20.101 30.2021 20.115 31.1961C20.128 32.1891 20.918 32.9831 21.878 32.9691C22.378 32.9961 22.87 32.8291 23.258 32.5011L22.911 31.9481C22.6392 32.1751 22.298 32.3021 21.944 32.3081C21.447 32.3511 21.006 31.9781 20.949 31.4651H23.419V31.1781C23.419 30.0981 22.772 29.3791 21.839 29.3791L21.829 29.3721ZM21.829 30.0411C21.9379 30.0391 22.0461 30.059 22.1472 30.0997C22.2482 30.1405 22.34 30.2011 22.417 30.2781C22.575 30.4341 22.667 30.6491 22.671 30.8761H20.932C20.9403 30.649 21.0376 30.4342 21.2027 30.278C21.3679 30.1219 21.5877 30.0368 21.815 30.0411H21.829ZM39.953 31.1781V28.0771H39.258V29.8761C39.1378 29.7139 38.98 29.5832 38.7981 29.4955C38.6163 29.4077 38.4158 29.3653 38.214 29.3721C37.254 29.3721 36.475 30.1771 36.475 31.1711C36.475 32.1641 37.254 32.9691 38.215 32.9691C38.62 32.9851 39.009 32.7971 39.258 32.4651V32.8831H39.953V31.1781ZM41.16 32.3981C41.2264 32.3976 41.2916 32.4167 41.3472 32.453C41.4029 32.4893 41.4467 32.5411 41.473 32.6021C41.4989 32.6648 41.5058 32.7336 41.4928 32.8001C41.4798 32.8667 41.4476 32.9279 41.4 32.9761C41.3361 33.0397 41.2501 33.0759 41.16 33.0771C41.0933 33.0761 41.0282 33.0558 40.9727 33.0188C40.9172 32.9817 40.8735 32.9294 40.847 32.8681C40.8119 32.783 40.8119 32.6873 40.847 32.6021C40.882 32.5215 40.9464 32.4572 41.027 32.4221C41.0726 32.4034 41.1218 32.3949 41.171 32.3971H41.161L41.16 32.3981ZM41.16 33.0051C41.1941 33.0054 41.2279 32.9985 41.2591 32.9847C41.2903 32.9709 41.3183 32.9506 41.341 32.9251C41.3844 32.8754 41.4083 32.8117 41.4083 32.7456C41.4083 32.6796 41.3844 32.6159 41.341 32.5661C41.3063 32.5277 41.2602 32.5013 41.2095 32.4909C41.1588 32.4805 41.106 32.4865 41.059 32.5081C41.0277 32.5217 40.9995 32.5414 40.976 32.5661C40.9323 32.6159 40.9083 32.6799 40.9083 32.7461C40.9083 32.8124 40.9323 32.8764 40.976 32.9261C41.001 32.9525 41.0313 32.9733 41.0649 32.9871C41.0985 33.0008 41.1347 33.0074 41.171 33.0061H41.161L41.16 33.0051ZM41.181 32.5771C41.2135 32.5757 41.2454 32.586 41.271 32.6061C41.2818 32.6153 41.2903 32.6268 41.2959 32.6399C41.3014 32.6529 41.3039 32.667 41.303 32.6811C41.3036 32.693 41.3018 32.7049 41.2977 32.7161C41.2935 32.7273 41.2872 32.7375 41.279 32.7461C41.2588 32.765 41.2326 32.7763 41.205 32.7781L41.306 32.8981H41.226L41.132 32.7781H41.102V32.8981H41.035V32.5812L41.181 32.5771ZM41.105 32.6381V32.7241H41.181C41.1947 32.7284 41.2093 32.7284 41.223 32.7241C41.2254 32.7192 41.2266 32.7137 41.2266 32.7081C41.2266 32.7026 41.2254 32.6971 41.223 32.6922C41.2254 32.6872 41.2266 32.6817 41.2266 32.6761C41.2266 32.6706 41.2254 32.6651 41.223 32.6601C41.2093 32.6558 41.1947 32.6558 41.181 32.6601L41.105 32.6381ZM37.279 31.1781C37.311 30.6131 37.774 30.1781 38.319 30.2001C38.866 30.2211 39.296 30.6901 39.287 31.2561C39.278 31.8211 38.834 32.2761 38.287 32.2781C38.1484 32.2795 38.011 32.2516 37.884 32.1961C37.757 32.1406 37.6432 32.0588 37.55 31.9561C37.4549 31.8513 37.3818 31.7284 37.3353 31.5948C37.2887 31.4611 37.2696 31.3194 37.279 31.1781ZM12.852 31.1781V29.4581H12.129V29.8761C12.0089 29.714 11.8512 29.5835 11.6696 29.4957C11.4879 29.4079 11.2877 29.3655 11.086 29.3721C10.126 29.3721 9.346 30.1771 9.346 31.1711C9.346 32.1641 10.126 32.9691 11.086 32.9691C11.491 32.9851 11.88 32.7971 12.129 32.4651V32.8831H12.852V31.1781ZM10.16 31.1781C10.193 30.6131 10.655 30.1781 11.202 30.2001C11.748 30.2211 12.178 30.6901 12.169 31.2561C12.16 31.8211 11.716 32.2761 11.169 32.2781C11.0298 32.2806 10.8916 32.2535 10.7637 32.1985C10.6358 32.1435 10.521 32.0619 10.427 31.9591C10.3311 31.8541 10.2575 31.7308 10.2106 31.5966C10.1637 31.4624 10.1444 31.32 10.154 31.1781H10.16Z" fill="white"/>
<path d="M21.9649 3.87291C18.9189 6.30191 17.1419 10.0209 17.1469 13.9559C17.1439 17.8909 18.9199 21.6069 21.9649 24.0349M21.9649 3.87291C16.7929 -0.259088 9.36494 0.342912 4.90194 5.25491C0.438938 10.1669 0.438938 17.7409 4.90194 22.6529C9.36494 27.5649 16.7919 28.1669 21.9649 24.0349M21.9649 3.87291C25.0079 6.30391 26.7849 10.0199 26.7849 13.9549C26.7849 17.8879 25.0079 21.6049 21.9649 24.0349M21.9649 3.87291C23.8146 2.38796 26.05 1.4623 28.408 1.20488C30.766 0.947471 33.1484 1.36902 35.2749 2.41991C39.6189 4.56491 42.3769 9.04291 42.3769 13.9519V13.9559C42.3769 18.8659 39.6189 23.3429 35.2749 25.4879C33.1484 26.5388 30.766 26.9604 28.408 26.7029C26.05 26.4455 23.8146 25.5199 21.9649 24.0349" stroke="white"/>
<path d="M41.1719 21.8979V21.4849H41.3369V21.3999H40.9199V21.4849H41.0979V21.8979H41.1719ZM41.9819 21.8979V21.3999H41.8549L41.7079 21.7559L41.5609 21.3999H41.4489V21.8979H41.5389V21.5239L41.6759 21.8489H41.7709L41.9079 21.5239V21.9019L41.9819 21.8979Z" fill="#F79E1B"/>
</g>
<defs>
<clipPath id="clip0_3533_2830">
<rect width="43" height="33" fill="white" transform="translate(0.5 0.0771484)"/>
</clipPath>
</defs>
</svg>
