<svg width="73" height="34" viewBox="0 0 73 34" fill="none" xmlns="http://www.w3.org/2000/svg">
<g clip-path="url(#clip0_3533_2838)">
<path d="M67.822 15.7501C67.412 16.0481 66.818 16.1961 66.005 16.1961H65.2L65.818 12.7061H66.411C67.085 12.7061 67.578 12.8201 67.918 13.0511C68.183 13.2311 68.498 13.5891 68.498 14.2671C68.498 15.0851 68.132 15.5251 67.822 15.7501ZM19.722 20.1291H13.482L13.886 17.8491H17.8L18.244 15.2791H14.368L14.743 13.0231H20.972L19.722 20.1291ZM71.183 11.0651C70.266 10.4081 68.878 10.0771 67.057 10.0771H62.29L60.518 20.1291H54.273L54.673 17.8491H58.436L58.883 15.2871L55.123 15.2941L55.526 13.0241H59.4L59.916 10.0771H52.046L50.364 19.6141H47.478L49.172 10.0771H45.058L43.375 19.6141H40.562L42.257 10.0771H38.147L36.371 20.1301H30.081L30.478 17.8501H34.257L34.702 15.3021L30.929 15.2991L31.329 13.0231H35.247L35.76 10.0771H11.24L9.845 18.0431L7.065 10.0771H2.796L0.5 23.0771H4.575L5.965 14.8921L8.664 23.0771H23.27L25.046 13.0231H27.332L25.555 23.0771H63.99L65.103 16.7301L66.908 23.0771H70.985L69.117 17.8911L69.543 17.7951C70.483 17.5851 71.219 17.1321 71.729 16.4531C72.24 15.7681 72.5 14.8891 72.5 13.8331C72.5 12.6021 72.07 11.6971 71.183 11.0651Z" fill="white"/>
</g>
<defs>
<clipPath id="clip0_3533_2838">
<rect width="72" height="33" fill="white" transform="translate(0.5 0.0771484)"/>
</clipPath>
</defs>
</svg>
